<svg width="512" height="256" viewBox="0 0 512 256" fill="none" xmlns="http://www.w3.org/2000/svg">
<rect width="512" height="256" fill="#F2F2F2"/>
<g id="airplane-profile">
<rect width="512" height="256" fill="white"/>
<g id="Plane Details">
<mask id="mask0" style="mask-type:alpha" maskUnits="userSpaceOnUse" x="12" y="53" width="481" height="145">
<path id="Clip 5" fill-rule="evenodd" clip-rule="evenodd" d="M12 198H492.371V53.2404H12V198Z" fill="white"/>
</mask>
<g mask="url(#mask0)">
<path id="Fill 4" fill-rule="evenodd" clip-rule="evenodd" d="M417.928 152.145H425.366V145.949H417.928V152.145ZM415.449 165.778H427.846V143.47H415.449V165.778Z" fill="#010202"/>
<path id="Fill 6" fill-rule="evenodd" clip-rule="evenodd" d="M492.371 169.476C492.371 169.502 492.365 169.527 492.365 169.551C492.36 169.822 492.34 170.094 492.293 170.364C492.266 170.521 492.215 170.675 492.174 170.83C492.138 170.968 492.111 171.107 492.064 171.244C491.999 171.429 491.912 171.612 491.829 171.796C491.779 171.902 491.739 172.011 491.682 172.119C491.585 172.305 491.466 172.49 491.348 172.674C491.279 172.782 491.217 172.889 491.143 172.997C491.022 173.166 490.883 173.335 490.745 173.504C490.643 173.63 490.544 173.755 490.433 173.88C490.308 174.019 490.169 174.155 490.032 174.293C489.872 174.454 489.712 174.615 489.536 174.776C489.434 174.868 489.323 174.96 489.215 175.051C488.968 175.263 488.709 175.475 488.431 175.686C488.389 175.718 488.343 175.75 488.3 175.783C486.284 177.283 483.487 178.722 479.912 180.056V159.761C489.202 163.015 492.288 165.48 492.362 169.33C492.364 169.379 492.371 169.426 492.371 169.476ZM452.934 154.624L450.018 148.427H455.079C456.416 149.264 457.719 150.102 459 150.927C460.986 152.205 462.93 153.456 464.892 154.624H452.934ZM441.482 154.624V148.427H448.648L451.564 154.624H441.482ZM414.209 167.017H429.085V142.231H414.209V167.017ZM477.433 158.917C476.907 158.745 476.385 158.573 475.826 158.395C475.742 158.369 475.661 158.334 475.577 158.307C474.927 158.095 474.283 157.872 473.651 157.627C473.462 157.554 473.279 157.468 473.089 157.392C472.563 157.179 472.04 156.966 471.526 156.733C471.391 156.672 471.262 156.604 471.127 156.542C470.558 156.278 469.99 156.009 469.429 155.723C469.391 155.703 469.353 155.682 469.313 155.662C468.663 155.328 468.017 154.983 467.376 154.624H467.375C464.794 153.181 462.268 151.558 459.671 149.885C458.923 149.403 458.166 148.916 457.401 148.427C457.373 148.409 457.342 148.391 457.315 148.373C449.491 143.388 440.59 138.257 427.043 135.993C427.039 135.993 427.037 135.992 427.033 135.992C425.924 135.807 424.783 135.641 423.61 135.496C423.552 135.489 423.491 135.483 423.434 135.475C422.295 135.336 421.127 135.216 419.926 135.119C419.832 135.112 419.736 135.106 419.643 135.098C418.451 135.005 417.23 134.93 415.97 134.879C415.883 134.877 415.793 134.875 415.704 134.872C414.413 134.823 413.093 134.795 411.729 134.795H405.531V188.085H411.729C413.387 188.085 415.019 188.077 416.628 188.059C445.259 187.768 465.213 184.911 477.433 180.915V158.917Z" fill="#010202"/>
<path id="Fill 7" fill-rule="evenodd" clip-rule="evenodd" d="M108.005 152.145H115.444V145.949H108.005V152.145ZM105.526 165.778H117.923V143.47H105.526V165.778Z" fill="#010202"/>
<path id="Fill 8" fill-rule="evenodd" clip-rule="evenodd" d="M104.286 167.017H119.163V142.231H104.286V167.017ZM145.196 134.795L102.959 117.298L49.8652 53.2404H23.2192L26.8751 66.1405H38.5418L56.1058 123.655H43.1721L45.6266 132.317L82.8595 141.449C85.0897 141.949 86.472 143.888 86.2203 146.159C85.9674 148.431 84.1934 150.019 81.9074 150.019H40.1596L39.8596 149.831L32.3843 145.195V152.145C32.3843 152.145 97.9441 179.776 145.196 186.582V134.795Z" fill="#010202"/>
<path id="Fill 1" fill-rule="evenodd" clip-rule="evenodd" d="M54 122L37.3202 67H27L42.4766 122H54Z" fill="#010202"/>
<path id="Fill 2" fill-rule="evenodd" clip-rule="evenodd" d="M40.5095 149H81.8992C85.598 149 86.188 143.595 82.5784 142.77L35.4262 131H12L40.5095 149Z" fill="#010202"/>
</g>
</g>
<g id="Plane Body">
<mask id="mask1" style="mask-type:alpha" maskUnits="userSpaceOnUse" x="151" y="135" width="248" height="63">
<path id="Clip" fill-rule="evenodd" clip-rule="evenodd" d="M151 135V187.396C155.36 187.859 159.52 188.118 163.4 188.118H260.12V190.588L276.24 195.529V198H310.96C314.384 198 317.16 195.234 317.16 191.824V188.118H399V135H151Z" fill="white"/>
</mask>
<g mask="url(#mask1)">
<path id="Background" fill-rule="evenodd" clip-rule="evenodd" d="M151 198H399V135H151V198Z" fill="#010202" fill-opacity="0.5"/>
<path id="{{sx:#0,o:0to0.5}}" fill-rule="evenodd" clip-rule="evenodd" d="M151 198H399V135H151V198Z" fill="#010202"/>
<path id="Pattern" fill-rule="evenodd" clip-rule="evenodd" d="M310.608 135H304.071L321.892 188.118H328.428L310.608 135ZM283.328 135H276.792L297.926 198H304.464L283.328 135ZM228.768 135H222.232L240.052 188.118H246.588L228.768 135ZM324.248 135H317.711L335.532 188.118H342.069L324.248 135ZM269.688 135H263.152L284.286 198H290.824L269.688 135ZM351.528 135H344.992L362.812 188.118H369.349L351.528 135ZM392.449 135H385.912L399 174.016V154.53L392.449 135ZM378.808 135H372.272L390.092 188.118H396.628L378.808 135ZM365.168 135H358.632L376.452 188.118H382.988L365.168 135ZM337.888 135H331.351L349.172 188.118H355.709L337.888 135ZM261.164 190.908L242.408 135H235.872L253.692 188.118H260.12V190.588L261.164 190.908ZM296.968 135H290.432L311.547 197.941C313.948 197.713 315.94 196.143 316.753 193.973L296.968 135ZM151 147.138V166.624L158.161 187.966C159.953 188.06 161.707 188.118 163.4 188.118H164.748L151 147.138ZM277.184 198L256.048 135H249.512L269.081 193.336L276.24 195.529V198H277.184ZM160.568 135H154.032L171.852 188.118H178.388L160.568 135ZM187.848 135H181.312L199.132 188.118H205.668L187.848 135ZM201.488 135H194.952L212.772 188.118H219.308L201.488 135ZM174.208 135H167.672L185.492 188.118H192.028L174.208 135ZM232.948 188.118H226.412L208.592 135H215.128L232.948 188.118Z" fill="#FEFEFE" fill-opacity="0.25"/>
</g>
</g>
<text id="Value {{textAlign:middle}}" fill="white" xml:space="preserve" style="white-space: pre" font-family="Work Sans" font-size="34" font-weight="900" letter-spacing="0px"><tspan x="204.095" y="171.679">{{#0|c}}</tspan></text>
</g>
</svg>
