<svg width="512" height="512" viewBox="0 0 512 512" fill="none" xmlns="http://www.w3.org/2000/svg">
<rect width="512" height="512" fill="#F2F2F2"/>
<g id="airplane-top">
<rect width="512" height="512" fill="white"/>
<g id="Plane Details">
<path id="Vector" d="M283.9 473.1L328.2 483.2V475.5L283.9 465.4V473.1Z" fill="black"/>
<path id="Vector_2" d="M337.7 465L277.3 433C280.2 412.9 282.7 391.2 282.9 375.4H229.1C229.2 391.2 231.7 413 234.7 433.1L174.5 465.1C170.9 467 168.4 470.7 168.1 474.8L166.9 487.2L182.8 483.6V474.7L229.5 464.1V473L240.7 470.4C242.5 480.5 243.8 486.9 243.8 486.9H251.1V397.5C251.1 394.8 253.3 392.6 256 392.6C258.7 392.6 260.9 394.8 260.9 397.5V486.9H268.2C268.2 486.9 269.5 480.4 271.3 470.4L282.7 473V464.1L329.4 474.7V483.6L345.3 487.2L344.1 474.8C343.8 470.6 341.3 466.9 337.7 465Z" fill="black"/>
<path id="Vector_3" d="M466.9 291.8L460.9 267.9C460 264.5 457.8 261.6 454.6 260L289 174.6V262.2L331.1 265.5L359.5 271V259.3L436.4 276.1V285.9L466.9 291.8Z" fill="black"/>
<path id="Vector_4" d="M256 393.7C254 393.7 252.3 395.3 252.3 397.4V495.3C252.3 497.3 253.9 499 256 499C258 499 259.7 497.4 259.7 495.3V397.4C259.6 395.4 258 393.7 256 393.7Z" fill="black"/>
<path id="Vector_5" d="M364.9 187.5C364.9 186.1 363.8 185.1 362.5 185.1H338C336.6 185.1 335.6 186.2 335.6 187.5V197.2L365 212.3V187.5H364.9Z" fill="black"/>
<path id="Vector_6" d="M256 13C251.8 13 246.5 17.8 241.7 25.2H270.3C265.4 17.8 260.2 13 256 13Z" fill="black"/>
<path id="Vector_7" d="M360.7 271.2L435.1 285.6V277.1L360.7 260.8V271.2Z" fill="black"/>
<path id="Vector_8" d="M282.9 80.3V66.9C282.9 53 277.9 38.3 271.7 27.7H240.1C234 38.2 229 52.8 229 66.9V80.4H282.9V80.3ZM276 60.3L272.4 64.4L268.7 54.4L273 48.6L276 60.3ZM256.6 38.3L272.2 47.5L267.8 53.4L256.6 48.2V38.3ZM255.4 38.3V48.3C254.3 48.8 245.1 53 244.2 53.5L239.8 47.6C240.7 46.9 254.3 38.9 255.4 38.3ZM239 48.6L243.3 54.4L239.6 64.4L236 60.3L239 48.6Z" fill="black"/>
<path id="Vector_9" d="M180.9 265.5L223 262.2V174.6L57.2 260C54.1 261.6 51.8 264.5 50.9 267.9L44.9 291.8L75.5 285.9V276.1L152.4 259.3V271L180.9 265.5Z" fill="black"/>
<path id="Vector_10" d="M183.9 483.2L228.2 473.1V465.4L183.9 475.5V483.2Z" fill="black"/>
<path id="Vector_11" d="M76.8 285.6L151.2 271.2V260.8L76.8 277.1V285.6Z" fill="black"/>
<path id="Vector_12" d="M176.4 187.5C176.4 186.1 175.3 185.1 174 185.1H149.5C148.1 185.1 147.1 186.2 147.1 187.5V212.3L176.5 197.2V187.5H176.4Z" fill="black"/>
</g>
<g id="Plane Body">
<path id="Background" opacity="0.5" d="M282.9 86H229V330.8H282.9V86Z" fill="black"/>
<path id="Bar {{sy:#0,o:0.5;1.0}}" d="M282.9 86H229V330.8H282.9V86Z" fill="black"/>
<path id="Pattern" opacity="0.25" d="M229 237.7L282.9 265.5V272.4L229 244.6V237.7ZM229 231.1L282.9 258.9V252L229 224.2V231.1ZM229 258L282.9 285.8V279L229 251.2V258ZM229 217.6L282.9 245.4V238.5L229 210.8V217.6ZM229 311.9L265.7 330.8H279L229 305V311.9ZM229 298.4L282.9 326.2V319.3L229 291.6V298.4ZM252.9 330.8L229 318.5V325.4L239.6 330.9H252.9V330.8ZM229 271.5L282.9 299.3V292.4L229 264.6V271.5ZM229 285L282.9 312.8V305.9L229 278.1V285ZM229 204.2L282.9 232V225.1L229 197.3V204.2ZM229 109.9L282.9 137.7V130.8L229 103V109.9ZM229 96.5L282.9 124.3V117.4L229 89.6V96.5ZM229 190.7L282.9 218.5V211.6L229 183.8V190.7ZM234.8 86L282.8 110.8V103.9L248.2 86H234.8ZM260.9 86L282.9 97.3V90.4L274.3 86H260.9ZM229 123.4L282.9 151.2V144.3L229 116.5V123.4ZM229 163.8L282.9 191.6V184.7L229 156.9V163.8ZM229 177.2L282.9 205V198.1L229 170.4V177.2ZM229 150.3L282.9 178.1V171.2L229 143.4V150.3ZM229 136.9L282.9 164.7V157.8L229 130V136.9Z" fill="white"/>
</g>
<text id="Value {{textAlign:middle}}" fill="black" xml:space="preserve" style="white-space: pre" font-family="Work Sans" font-size="34" font-weight="900" letter-spacing="0px"><tspan x="185.178" y="364.679">{{#0|c}}</tspan></text>
</g>
</svg>
