<svg width="512" height="512" viewBox="0 0 512 512" fill="none" xmlns="http://www.w3.org/2000/svg">
<g id="airplane-color-top">
<g id="Subtract" opacity="0.85">
<path fill-rule="evenodd" clip-rule="evenodd" d="M240.1 27.7C245.303 18.6016 250.948 13 255.5 13C260.052 13 266.389 18.6016 271.7 27.7C277.9 38.3 282.9 53 282.9 66.9V80.3V84.4H229V66.9C229 52.8 234 38.2 240.1 27.7ZM456.9 267.9L462.9 291.8L432.4 285.9V285.497L355.5 270.613V271L327.1 265.5L285 262.2V174.6L331.6 198.632V189.5C331.6 188.2 332.6 187.1 334 187.1H358.5C359.8 187.1 360.9 188.1 360.9 189.5H361V213.793L450.6 260C453.8 261.6 456 264.5 456.9 267.9ZM355.5 259.329L432.4 276.176V276.1L355.5 259.3V259.329ZM178 187.1C179.3 187.1 180.4 188.1 180.4 189.5H180.5V198.551L227 174.6V262.2L184.9 265.5L156.4 271V270.629L79.5 285.331V285.9L48.9 291.8L54.9 267.9C55.8 264.5 58.1 261.6 61.2 260L151.1 213.694V189.5C151.1 188.2 152.1 187.1 153.5 187.1H178ZM156.4 259.346V259.3L133.851 264.226L156.4 259.346ZM282.7 473V472.376L329.4 482.865V483.6L345.3 487.2L344.1 474.8C343.8 470.6 341.3 466.9 337.7 465L277.3 433C280.2 412.9 282.7 391.2 282.9 375.4H229.1C229.2 391.2 231.7 413 234.7 433.1L174.5 465.1C170.9 467 168.4 470.7 168.1 474.8L166.9 487.2L182.8 483.6V482.82L229.5 472.331V473L240.7 470.4C242.5 480.5 243.8 486.9 243.8 486.9H251V495.24C251 497.273 253.162 499 256 499C258.703 499 261 497.374 261 495.24V486.9H268.2C268.2 486.9 269.5 480.4 271.3 470.4L282.7 473ZM282.7 464.157L306.751 469.559L282.7 464.1V464.157ZM229.5 464.112L224.335 465.272L229.5 464.1V464.112ZM283 86H229V331H283V86ZM249.5 33.5L237.5 45L233 60L236.5 72.5H255H276.5L280.5 60L276 44L266.5 37.5L255 32.5L249.5 33.5Z" fill="white"/>
<path d="M240.1 27.7L241.829 28.7047L241.836 28.6928L240.1 27.7ZM271.7 27.7L269.973 28.7083L269.974 28.7098L271.7 27.7ZM282.9 84.4V86.4H284.9V84.4H282.9ZM229 84.4H227V86.4H229V84.4ZM462.9 291.8L462.52 293.764L465.605 294.36L464.84 291.313L462.9 291.8ZM456.9 267.9L458.84 267.413L458.837 267.401L458.833 267.388L456.9 267.9ZM432.4 285.9H430.4V287.55L432.02 287.864L432.4 285.9ZM432.4 285.497H434.4V283.847L432.78 283.533L432.4 285.497ZM355.5 270.613L355.88 268.649L353.5 268.189V270.613H355.5ZM355.5 271L355.12 272.964L357.5 273.424V271H355.5ZM327.1 265.5L327.48 263.536L327.369 263.515L327.256 263.506L327.1 265.5ZM285 262.2H283V264.049L284.844 264.194L285 262.2ZM285 174.6L285.917 172.822L283 171.318V174.6H285ZM331.6 198.632L330.683 200.409L333.6 201.913V198.632H331.6ZM360.9 189.5H358.9V191.5H360.9V189.5ZM361 189.5H363V187.5H361V189.5ZM361 213.793H359V215.012L360.083 215.571L361 213.793ZM450.6 260L449.683 261.778L449.694 261.783L449.706 261.789L450.6 260ZM432.4 276.176L431.972 278.13L434.4 278.662V276.176H432.4ZM355.5 259.329H353.5V260.938L355.072 261.282L355.5 259.329ZM432.4 276.1H434.4V274.49L432.827 274.146L432.4 276.1ZM355.5 259.3L355.927 257.346L353.5 256.816V259.3H355.5ZM180.4 189.5H178.4V191.5H180.4V189.5ZM180.5 189.5H182.5V187.5H180.5V189.5ZM180.5 198.551H178.5V201.831L181.416 200.329L180.5 198.551ZM227 174.6H229V171.32L226.084 172.822L227 174.6ZM227 262.2L227.156 264.194L229 264.049V262.2H227ZM184.9 265.5L184.744 263.506L184.632 263.515L184.521 263.536L184.9 265.5ZM156.4 271H154.4V273.423L156.779 272.964L156.4 271ZM156.4 270.629H158.4V268.21L156.024 268.664L156.4 270.629ZM79.5 285.331L79.1245 283.366L77.5 283.677V285.331H79.5ZM79.5 285.9L79.8787 287.864L81.5 287.551V285.9H79.5ZM48.9 291.8L46.9602 291.313L46.1957 294.358L49.2787 293.764L48.9 291.8ZM54.9 267.9L52.9666 267.388L52.9633 267.401L52.9602 267.413L54.9 267.9ZM61.2 260L60.2842 258.222L60.2827 258.223L61.2 260ZM151.1 213.694L152.016 215.472L153.1 214.914V213.694H151.1ZM156.4 259.3H158.4V256.816L155.973 257.346L156.4 259.3ZM156.4 259.346L156.823 261.301L158.4 260.96V259.346H156.4ZM133.851 264.226L133.424 262.272L134.274 266.181L133.851 264.226ZM282.7 472.376L283.138 470.425L280.7 469.877V472.376H282.7ZM282.7 473L282.255 474.95L284.7 475.507V473H282.7ZM329.4 482.865H331.4V481.265L329.838 480.914L329.4 482.865ZM329.4 483.6H327.4V485.198L328.958 485.551L329.4 483.6ZM345.3 487.2L344.858 489.151L347.557 489.762L347.291 487.007L345.3 487.2ZM344.1 474.8L342.105 474.942L342.107 474.968L342.109 474.993L344.1 474.8ZM337.7 465L336.764 466.767L336.767 466.769L337.7 465ZM277.3 433L275.321 432.714L275.119 434.108L276.364 434.767L277.3 433ZM282.9 375.4L284.9 375.425L284.926 373.4H282.9V375.4ZM229.1 375.4V373.4H227.087L227.1 375.413L229.1 375.4ZM234.7 433.1L235.639 434.866L236.887 434.203L236.678 432.805L234.7 433.1ZM174.5 465.1L175.434 466.869L175.439 466.866L174.5 465.1ZM168.1 474.8L170.091 474.993L170.093 474.969L170.095 474.946L168.1 474.8ZM166.9 487.2L164.909 487.007L164.643 489.762L167.342 489.151L166.9 487.2ZM182.8 483.6L183.242 485.551L184.8 485.198V483.6H182.8ZM182.8 482.82L182.362 480.869L180.8 481.22V482.82H182.8ZM229.5 472.331H231.5V469.832L229.062 470.38L229.5 472.331ZM229.5 473H227.5V475.517L229.952 474.948L229.5 473ZM240.7 470.4L242.669 470.049L242.299 467.976L240.248 468.452L240.7 470.4ZM243.8 486.9L241.84 487.298L242.165 488.9H243.8V486.9ZM251 486.9H253V484.9H251V486.9ZM261 486.9V484.9H259V486.9H261ZM268.2 486.9V488.9H269.84L270.161 487.292L268.2 486.9ZM271.3 470.4L271.745 468.45L269.703 467.984L269.332 470.046L271.3 470.4ZM306.751 469.559L306.312 471.51L307.193 467.609L306.751 469.559ZM282.7 464.157H280.7V465.758L282.262 466.109L282.7 464.157ZM282.7 464.1L283.143 462.15L280.7 461.595V464.1H282.7ZM224.335 465.272L223.892 463.322L224.773 467.224L224.335 465.272ZM229.5 464.112L229.938 466.064L231.5 465.713V464.112H229.5ZM229.5 464.1H231.5V461.595L229.057 462.15L229.5 464.1ZM229 86V84H227V86H229ZM283 86H285V84H283V86ZM229 331H227V333H229V331ZM283 331V333H285V331H283ZM237.5 45L236.116 43.556L235.736 43.9206L235.584 44.4253L237.5 45ZM249.5 33.5L249.142 31.5323L248.55 31.6399L248.116 32.056L249.5 33.5ZM233 60L231.084 59.4253L230.918 59.9808L231.074 60.5393L233 60ZM236.5 72.5L234.574 73.0393L234.983 74.5H236.5V72.5ZM276.5 72.5V74.5H277.96L278.405 73.1096L276.5 72.5ZM280.5 60L282.405 60.6096L282.588 60.0371L282.425 59.4585L280.5 60ZM276 44L277.925 43.4585L277.729 42.7594L277.129 42.3494L276 44ZM266.5 37.5L267.629 35.8494L267.472 35.7418L267.297 35.6659L266.5 37.5ZM255 32.5L255.797 30.6659L255.24 30.4235L254.642 30.5323L255 32.5ZM255.5 11C252.441 11 249.41 12.8414 246.655 15.4987C243.843 18.2116 241.022 22.0586 238.364 26.7072L241.836 28.6928C244.381 24.2431 246.984 20.74 249.433 18.3775C251.939 15.9594 254.007 15 255.5 15V11ZM273.427 26.6917C270.695 22.0112 267.66 18.1603 264.654 15.4521C261.715 12.8048 258.523 11 255.5 11V15C257.029 15 259.282 15.996 261.977 18.4241C264.605 20.7914 267.394 24.2905 269.973 28.7083L273.427 26.6917ZM284.9 66.9C284.9 52.5734 279.765 37.5281 273.426 26.6902L269.974 28.7098C276.034 39.0719 280.9 53.4266 280.9 66.9H284.9ZM284.9 80.3V66.9H280.9V80.3H284.9ZM284.9 84.4V80.3H280.9V84.4H284.9ZM229 86.4H282.9V82.4H229V86.4ZM227 66.9V84.4H231V66.9H227ZM238.371 26.6953C232.134 37.4311 227 52.3747 227 66.9H231C231 53.2253 235.866 38.9689 241.829 28.7047L238.371 26.6953ZM464.84 291.313L458.84 267.413L454.96 268.387L460.96 292.287L464.84 291.313ZM432.02 287.864L462.52 293.764L463.28 289.836L432.78 283.936L432.02 287.864ZM430.4 285.497V285.9H434.4V285.497H430.4ZM355.12 272.576L432.02 287.46L432.78 283.533L355.88 268.649L355.12 272.576ZM357.5 271V270.613H353.5V271H357.5ZM326.72 267.464L355.12 272.964L355.88 269.036L327.48 263.536L326.72 267.464ZM284.844 264.194L326.944 267.494L327.256 263.506L285.156 260.206L284.844 264.194ZM283 174.6V262.2H287V174.6H283ZM332.517 196.854L285.917 172.822L284.083 176.378L330.683 200.409L332.517 196.854ZM329.6 189.5V198.632H333.6V189.5H329.6ZM334 185.1C331.441 185.1 329.6 187.15 329.6 189.5H333.6C333.6 189.367 333.65 189.268 333.71 189.206C333.761 189.153 333.845 189.1 334 189.1V185.1ZM358.5 185.1H334V189.1H358.5V185.1ZM362.9 189.5C362.9 186.941 360.85 185.1 358.5 185.1V189.1C358.633 189.1 358.732 189.15 358.794 189.21C358.847 189.261 358.9 189.345 358.9 189.5H362.9ZM361 187.5H360.9V191.5H361V187.5ZM363 213.793V189.5H359V213.793H363ZM451.517 258.222L361.917 212.016L360.083 215.571L449.683 261.778L451.517 258.222ZM458.833 267.388C457.799 263.48 455.25 260.089 451.494 258.211L449.706 261.789C452.35 263.111 454.201 265.52 454.967 268.412L458.833 267.388ZM432.828 274.223L355.928 257.375L355.072 261.282L431.972 278.13L432.828 274.223ZM430.4 276.1V276.176H434.4V276.1H430.4ZM355.073 261.254L431.973 278.054L432.827 274.146L355.927 257.346L355.073 261.254ZM357.5 259.329V259.3H353.5V259.329H357.5ZM182.4 189.5C182.4 186.941 180.35 185.1 178 185.1V189.1C178.133 189.1 178.232 189.15 178.294 189.21C178.347 189.261 178.4 189.345 178.4 189.5H182.4ZM180.5 187.5H180.4V191.5H180.5V187.5ZM182.5 198.551V189.5H178.5V198.551H182.5ZM226.084 172.822L179.584 196.773L181.416 200.329L227.916 176.378L226.084 172.822ZM229 262.2V174.6H225V262.2H229ZM185.056 267.494L227.156 264.194L226.844 260.206L184.744 263.506L185.056 267.494ZM156.779 272.964L185.279 267.464L184.521 263.536L156.021 269.036L156.779 272.964ZM154.4 270.629V271H158.4V270.629H154.4ZM79.8756 287.295L156.776 272.593L156.024 268.664L79.1245 283.366L79.8756 287.295ZM81.5 285.9V285.331H77.5V285.9H81.5ZM49.2787 293.764L79.8787 287.864L79.1214 283.936L48.5214 289.836L49.2787 293.764ZM52.9602 267.413L46.9602 291.313L50.8398 292.287L56.8398 268.387L52.9602 267.413ZM60.2827 258.223C56.6699 260.087 54.0082 263.453 52.9666 267.388L56.8334 268.412C57.5918 265.547 59.5301 263.113 62.1173 261.777L60.2827 258.223ZM150.184 211.916L60.2842 258.222L62.1158 261.778L152.016 215.472L150.184 211.916ZM149.1 189.5V213.694H153.1V189.5H149.1ZM153.5 185.1C150.941 185.1 149.1 187.15 149.1 189.5H153.1C153.1 189.367 153.15 189.268 153.21 189.206C153.261 189.153 153.345 189.1 153.5 189.1V185.1ZM178 185.1H153.5V189.1H178V185.1ZM154.4 259.3V259.346H158.4V259.3H154.4ZM134.278 266.18L156.827 261.254L155.973 257.346L133.424 262.272L134.278 266.18ZM155.977 257.392L133.428 262.271L134.274 266.181L156.823 261.301L155.977 257.392ZM280.7 472.376V473H284.7V472.376H280.7ZM329.838 480.914L283.138 470.425L282.262 474.328L328.962 484.817L329.838 480.914ZM331.4 483.6V482.865H327.4V483.6H331.4ZM345.742 485.249L329.842 481.649L328.958 485.551L344.858 489.151L345.742 485.249ZM342.109 474.993L343.309 487.393L347.291 487.007L346.091 474.607L342.109 474.993ZM336.767 466.769C339.768 468.353 341.855 471.445 342.105 474.942L346.095 474.657C345.745 469.754 342.832 465.447 338.634 463.231L336.767 466.769ZM276.364 434.767L336.764 466.767L338.636 463.233L278.236 431.233L276.364 434.767ZM280.9 375.375C280.702 391.036 278.219 412.626 275.321 432.714L279.28 433.286C282.181 413.174 284.698 391.364 284.9 375.425L280.9 375.375ZM229.1 377.4H282.9V373.4H229.1V377.4ZM236.678 432.805C233.681 412.723 231.199 391.039 231.1 375.387L227.1 375.413C227.201 391.361 229.719 413.277 232.722 433.395L236.678 432.805ZM175.439 466.866L235.639 434.866L233.761 431.334L173.561 463.334L175.439 466.866ZM170.095 474.946C170.343 471.555 172.424 468.457 175.434 466.869L173.567 463.331C169.376 465.543 166.457 469.845 166.105 474.654L170.095 474.946ZM168.891 487.393L170.091 474.993L166.109 474.607L164.909 487.007L168.891 487.393ZM182.358 481.649L166.458 485.249L167.342 489.151L183.242 485.551L182.358 481.649ZM180.8 482.82V483.6H184.8V482.82H180.8ZM229.062 470.38L182.362 480.869L183.238 484.772L229.938 474.283L229.062 470.38ZM231.5 473V472.331H227.5V473H231.5ZM240.248 468.452L229.048 471.052L229.952 474.948L241.152 472.348L240.248 468.452ZM243.8 486.9C245.76 486.502 245.76 486.502 245.76 486.502C245.76 486.502 245.76 486.502 245.76 486.502C245.76 486.502 245.76 486.501 245.76 486.501C245.76 486.5 245.759 486.499 245.759 486.498C245.759 486.495 245.758 486.49 245.756 486.484C245.754 486.472 245.75 486.454 245.745 486.43C245.736 486.381 245.721 486.308 245.702 486.212C245.663 486.019 245.605 485.731 245.531 485.354C245.381 484.599 245.163 483.488 244.889 482.06C244.341 479.205 243.567 475.089 242.669 470.049L238.731 470.751C239.633 475.811 240.409 479.945 240.961 482.815C241.237 484.25 241.456 485.369 241.607 486.131C241.682 486.511 241.74 486.802 241.78 486.999C241.799 487.097 241.814 487.171 241.825 487.221C241.83 487.246 241.833 487.265 241.836 487.278C241.837 487.285 241.838 487.29 241.839 487.293C241.839 487.295 241.84 487.296 241.84 487.297C241.84 487.297 241.84 487.297 241.84 487.298C241.84 487.298 241.84 487.298 241.84 487.298C241.84 487.298 241.84 487.298 243.8 486.9ZM251 484.9H243.8V488.9H251V484.9ZM253 495.24V486.9H249V495.24H253ZM256 497C253.739 497 253 495.706 253 495.24H249C249 498.84 252.585 501 256 501V497ZM259 495.24C259 495.53 258.853 495.922 258.326 496.311C257.792 496.705 256.968 497 256 497V501C257.734 501 259.411 500.482 260.701 499.53C261.998 498.572 263 497.084 263 495.24H259ZM259 486.9V495.24H263V486.9H259ZM268.2 484.9H261V488.9H268.2V484.9ZM269.332 470.046C268.433 475.038 267.659 479.155 267.111 482.024C266.836 483.459 266.618 484.581 266.469 485.344C266.394 485.725 266.336 486.017 266.297 486.213C266.278 486.311 266.263 486.385 266.254 486.434C266.249 486.459 266.245 486.477 266.242 486.49C266.241 486.496 266.24 486.5 266.24 486.503C266.239 486.505 266.239 486.506 266.239 486.507C266.239 486.507 266.239 486.507 266.239 486.508C266.239 486.508 266.239 486.508 266.239 486.508C266.239 486.508 266.239 486.508 268.2 486.9C270.161 487.292 270.161 487.292 270.161 487.292C270.161 487.292 270.161 487.292 270.161 487.292C270.161 487.292 270.161 487.291 270.161 487.291C270.162 487.29 270.162 487.289 270.162 487.287C270.163 487.284 270.164 487.279 270.165 487.272C270.168 487.259 270.172 487.24 270.177 487.215C270.187 487.164 270.202 487.089 270.221 486.99C270.261 486.791 270.319 486.497 270.394 486.113C270.544 485.344 270.764 484.216 271.039 482.776C271.591 479.895 272.367 475.762 273.268 470.754L269.332 470.046ZM283.145 471.05L271.745 468.45L270.855 472.35L282.255 474.95L283.145 471.05ZM307.189 467.608L283.138 462.206L282.262 466.109L306.312 471.51L307.189 467.608ZM282.257 466.05L306.308 471.509L307.193 467.609L283.143 462.15L282.257 466.05ZM284.7 464.157V464.1H280.7V464.157H284.7ZM224.773 467.224L229.938 466.064L229.062 462.161L223.897 463.321L224.773 467.224ZM229.057 462.15L223.892 463.322L224.778 467.223L229.943 466.05L229.057 462.15ZM231.5 464.112V464.1H227.5V464.112H231.5ZM229 88H283V84H229V88ZM231 331V86H227V331H231ZM283 329H229V333H283V329ZM281 86V331H285V86H281ZM238.884 46.444L250.884 34.944L248.116 32.056L236.116 43.556L238.884 46.444ZM234.916 60.5747L239.416 45.5747L235.584 44.4253L231.084 59.4253L234.916 60.5747ZM238.426 71.9607L234.926 59.4607L231.074 60.5393L234.574 73.0393L238.426 71.9607ZM255 70.5H236.5V74.5H255V70.5ZM276.5 70.5H255V74.5H276.5V70.5ZM278.595 59.3904L274.595 71.8904L278.405 73.1096L282.405 60.6096L278.595 59.3904ZM274.075 44.5415L278.575 60.5415L282.425 59.4585L277.925 43.4585L274.075 44.5415ZM265.371 39.1506L274.871 45.6506L277.129 42.3494L267.629 35.8494L265.371 39.1506ZM254.203 34.3341L265.703 39.3341L267.297 35.6659L255.797 30.6659L254.203 34.3341ZM249.858 35.4677L255.358 34.4677L254.642 30.5323L249.142 31.5323L249.858 35.4677Z" fill="white"/>
</g>
<g id="Plane Details">
<path id="Vector" d="M360.9 189.5C360.9 188.1 359.8 187.1 358.5 187.1H334C332.6 187.1 331.6 188.2 331.6 189.5V199.2L361 214.3V189.5H360.9Z" fill="#0F3E42"/>
<path id="Vector_2" d="M180.4 189.5C180.4 188.1 179.3 187.1 178 187.1H153.5C152.1 187.1 151.1 188.2 151.1 189.5V214.3L180.5 199.2V189.5H180.4Z" fill="#0F3E42"/>
<path id="Vector_3" d="M282 472.219L330 483V474.781L282 464V472.219Z" fill="#0F3E42"/>
<path id="Vector_4" d="M182 483L230 472.219V464L182 474.781V483Z" fill="#0F3E42"/>
<path id="Vector_5" d="M354 270.323L435 286V276.746L354 259V270.323Z" fill="#0F3E42"/>
<path id="Vector_6" d="M76 286L158 270.323V259L76 276.746V286Z" fill="#0F3E42"/>
<path id="Vector_7" d="M337.7 465L277.3 433C280.2 412.9 282.7 391.2 282.9 375.4H229.1C229.2 391.2 231.7 413 234.7 433.1L174.5 465.1C170.9 467 168.4 470.7 168.1 474.8L166.9 487.2L182.8 483.6V474.7L229.5 464.1V473L240.7 470.4C242.5 480.5 243.8 486.9 243.8 486.9H251.1V397.5C251.1 394.8 253.3 392.6 256 392.6C258.7 392.6 260.9 394.8 260.9 397.5V486.9H268.2C268.2 486.9 269.5 480.4 271.3 470.4L282.7 473V464.1L329.4 474.7V483.6L345.3 487.2L344.1 474.8C343.8 470.6 341.3 466.9 337.7 465Z" fill="#238A92"/>
<path id="Vector_8" d="M462.9 291.8L456.9 267.9C456 264.5 453.8 261.6 450.6 260L285 174.6V262.2L327.1 265.5L355.5 271V259.3L432.4 276.1V285.9L462.9 291.8Z" fill="#238A92"/>
<path id="Vector_9" d="M256 392C253.297 392 251 393.626 251 395.76V495.24C251 497.273 253.162 499 256 499C258.703 499 261 497.374 261 495.24V395.76C260.865 393.727 258.703 392 256 392Z" fill="#0F3E42"/>
<path id="Vector_10" d="M255.5 13C250.948 13 245.303 18.6016 240.1 27.7H271.7C266.389 18.6016 260.052 13 255.5 13Z" fill="#0F3E42"/>
<path id="Vector_11" d="M282.9 82.3V68.9C282.9 55 277.9 38.3 271.7 27.7H240.1C234 38.2 229 54.8 229 68.9V86.4H282.9V82.3ZM276 62.3L272.4 66.4L268.7 56.4L273 50.6L276 62.3ZM256.6 40.3L272.2 49.5L267.8 55.4L256.6 50.2V40.3ZM255.4 40.3V50.3C254.3 50.8 245.1 55 244.2 55.5L239.8 49.6C240.7 48.9 254.3 40.9 255.4 40.3ZM239 50.6L243.3 56.4L239.6 66.4L236 62.3L239 50.6Z" fill="#238A92"/>
<path id="Vector_12" d="M184.9 265.5L227 262.2V174.6L61.2 260C58.1 261.6 55.8 264.5 54.9 267.9L48.9 291.8L79.5 285.9V276.1L156.4 259.3V271L184.9 265.5Z" fill="#238A92"/>
</g>
<g id="Plane Body">
<path id="Background" d="M282.9 86H229V330.8H282.9V86Z" fill="#0A3342"/>
<path id="Bar {{sy:#0,o:0.5;1.0}}" d="M283 86H229V331H283V86Z" fill="#238A92"/>
<path id="Pattern" opacity="0.2" d="M229 237.7L282.9 265.5V272.4L229 244.6V237.7ZM229 231.1L282.9 258.9V252L229 224.2V231.1ZM229 258L282.9 285.8V279L229 251.2V258ZM229 217.6L282.9 245.4V238.5L229 210.8V217.6ZM229 311.9L265.7 330.8H279L229 305V311.9ZM229 298.4L282.9 326.2V319.3L229 291.6V298.4ZM252.9 330.8L229 318.5V325.4L239.6 330.9H252.9V330.8ZM229 271.5L282.9 299.3V292.4L229 264.6V271.5ZM229 285L282.9 312.8V305.9L229 278.1V285ZM229 204.2L282.9 232V225.1L229 197.3V204.2ZM229 109.9L282.9 137.7V130.8L229 103V109.9ZM229 96.5L282.9 124.3V117.4L229 89.6V96.5ZM229 190.7L282.9 218.5V211.6L229 183.8V190.7ZM234.8 86L282.8 110.8V103.9L248.2 86H234.8ZM260.9 86L282.9 97.3V90.4L274.3 86H260.9ZM229 123.4L282.9 151.2V144.3L229 116.5V123.4ZM229 163.8L282.9 191.6V184.7L229 156.9V163.8ZM229 177.2L282.9 205V198.1L229 170.4V177.2ZM229 150.3L282.9 178.1V171.2L229 143.4V150.3ZM229 136.9L282.9 164.7V157.8L229 130V136.9Z" fill="white"/>
</g>
<text id="Value {{textAlign:middle}}" fill="white" xml:space="preserve" style="white-space: pre" font-family="Work Sans" font-size="34" font-weight="900" letter-spacing="0px"><tspan x="185.194" y="364.679">{{#0|c}}</tspan></text>
</g>
</svg>
