<svg width="1280" height="720" viewBox="0 0 1280 720" fill="none" xmlns="http://www.w3.org/2000/svg">
<rect width="1280" height="720" fill="#F2F2F2"/>
<g id="carbon-cycle" clip-path="url(#clip0_236_2)">
<rect width="1280" height="720" fill="white"/>
<rect id="Sky" width="1280" height="720" fill="url(#paint0_linear_236_2)"/>
<rect id="Horizon Glow" y="282" width="1280" height="109" fill="url(#paint1_linear_236_2)"/>
<g id="Clouds">
<g id="Cloud">
<ellipse id="Ellipse 24" cx="458.116" cy="76.7271" rx="35.5" ry="17" transform="rotate(-19.1958 458.116 76.7271)" fill="#BFD5E6"/>
<ellipse id="Ellipse 25" cx="434.353" cy="91.1274" rx="35.5" ry="17" transform="rotate(26.6745 434.353 91.1274)" fill="#BFD5E6"/>
<ellipse id="Ellipse 26" cx="373.12" cy="82.3392" rx="40.4142" ry="18.6114" transform="rotate(-5.92634 373.12 82.3392)" fill="#BFD5E6"/>
<ellipse id="Ellipse 27" cx="401.172" cy="95.1847" rx="31.7952" ry="14.9819" transform="rotate(-30.5222 401.172 95.1847)" fill="#BFD5E6"/>
<ellipse id="Ellipse 28" cx="450" cy="64" rx="44" ry="21" fill="white"/>
<ellipse id="Ellipse 29" cx="368.816" cy="64.2303" rx="51.592" ry="21.4181" transform="rotate(-11.4461 368.816 64.2303)" fill="white"/>
<ellipse id="Ellipse 30" cx="409.5" cy="66.5" rx="37.3653" ry="26.5769" transform="rotate(-63.3854 409.5 66.5)" fill="white"/>
</g>
<g id="Cloud_2">
<ellipse id="Ellipse 24_2" rx="44.1991" ry="23.1632" transform="matrix(-0.931439 -0.363899 -0.296319 0.955089 779.032 29.5311)" fill="#BFD5E6"/>
<ellipse id="Ellipse 25_2" rx="44.7167" ry="22.9343" transform="matrix(-0.871106 0.491096 0.408617 0.912706 808.212 49.3742)" fill="#BFD5E6"/>
<ellipse id="Ellipse 26_2" rx="49.6953" ry="25.6176" transform="matrix(-0.993284 -0.115703 -0.0921109 0.995749 883.404 37.2643)" fill="#BFD5E6"/>
<ellipse id="Ellipse 27_2" rx="40.3273" ry="20.0889" transform="matrix(-0.833999 -0.551766 -0.465102 0.885257 848.957 54.9649)" fill="#BFD5E6"/>
<ellipse id="Ellipse 28_2" rx="54.03" ry="28.9372" transform="matrix(-1 0 0 1 788.998 11.9936)" fill="white"/>
<ellipse id="Ellipse 29_2" rx="63.6753" ry="29.3934" transform="matrix(-0.975147 -0.22156 -0.177564 0.984109 888.688 12.311)" fill="white"/>
<ellipse id="Ellipse 30_2" rx="50.4132" ry="33.4735" transform="matrix(-0.40773 -0.913102 -0.871652 0.490125 838.73 15.4385)" fill="white"/>
</g>
<g id="Cloud_3">
<ellipse id="Ellipse 24_3" rx="48.0314" ry="24.2481" transform="matrix(0.937118 -0.349013 0.30948 0.950906 123.485 97.7648)" fill="#BFD5E6"/>
<ellipse id="Ellipse 25_3" rx="48.3492" ry="24.1029" transform="matrix(0.880853 0.47339 -0.425094 0.905149 91.5822 118.446)" fill="#BFD5E6"/>
<ellipse id="Ellipse 26_3" rx="54.3003" ry="26.7114" transform="matrix(0.993891 -0.110365 0.096584 0.995325 9.37206 105.825)" fill="#BFD5E6"/>
<ellipse id="Ellipse 27_3" rx="36.5907" ry="49.7694" transform="matrix(0.10301 -0.99468 -0.999022 -0.0442189 38.0044 117.438)" fill="#BFD5E6"/>
<ellipse id="Ellipse 28_3" rx="59.0728" ry="30.1599" transform="matrix(-1 0 0 1 -10.9272 79.4863)" fill="white"/>
<ellipse id="Ellipse 29_3" rx="69.4622" ry="30.6838" transform="matrix(-0.977338 -0.211683 -0.185972 0.982555 116.594 68.8526)" fill="white"/>
<ellipse id="Ellipse 30_3" rx="52.98" ry="36.1943" transform="matrix(-0.424186 -0.905575 -0.881366 0.472434 43.4465 83.0768)" fill="white"/>
</g>
<g id="Cloud_4">
<ellipse id="Ellipse 24_4" rx="24.7715" ry="12.5056" transform="matrix(-0.937118 -0.349013 -0.30948 0.950906 824.402 227.138)" fill="#BFD5E6"/>
<ellipse id="Ellipse 25_4" rx="19.6607" ry="13.0574" transform="matrix(-0.880853 0.47339 0.425094 0.905149 845.768 235.874)" fill="#BFD5E6"/>
<ellipse id="Ellipse 26_4" rx="28.0046" ry="13.7761" transform="matrix(-0.993891 -0.110365 -0.096584 0.995325 883.254 231.294)" fill="#BFD5E6"/>
<ellipse id="Ellipse 27_4" rx="18.8712" ry="25.6679" transform="matrix(-0.10301 -0.99468 0.999022 -0.0442189 868.487 237.284)" fill="#BFD5E6"/>
<ellipse id="Ellipse 28_4" cx="893.723" cy="217.711" rx="30.466" ry="15.5546" fill="white"/>
<ellipse id="Ellipse 29_4" rx="35.8241" ry="15.8248" transform="matrix(0.977338 -0.211683 0.185972 0.982555 827.955 212.227)" fill="white"/>
<ellipse id="Ellipse 30_4" rx="27.3237" ry="18.6667" transform="matrix(0.965926 -0.258819 0.20632 0.978485 864.244 212.337)" fill="white"/>
</g>
<g id="Cloud_5">
<ellipse id="Ellipse 24_5" rx="55.2695" ry="23.5702" transform="matrix(0.957783 -0.287493 0.374439 0.927252 1230.55 95.7682)" fill="#BFD5E6"/>
<ellipse id="Ellipse 25_5" rx="43.0372" ry="25.1404" transform="matrix(0.91762 0.397458 -0.503468 0.864014 1181.83 111.825)" fill="#BFD5E6"/>
<ellipse id="Ellipse 26_5" rx="63.7245" ry="25.3824" transform="matrix(0.996019 -0.08914 0.119537 0.99283 1096.35 103.408)" fill="#BFD5E6"/>
<ellipse id="Ellipse 27_5" rx="34.7821" ry="58.5122" transform="matrix(0.127447 -0.991845 -0.999364 -0.0356508 1130.02 114.416)" fill="#BFD5E6"/>
<ellipse id="Ellipse 28_5" rx="69.4737" ry="28.5875" transform="matrix(-1 0 0 1 1072.47 78.4426)" fill="white"/>
<ellipse id="Ellipse 29_5" rx="81.0483" ry="29.3541" transform="matrix(-0.985103 -0.171963 -0.228623 0.973515 1222.45 68.3633)" fill="white"/>
<ellipse id="Ellipse 30_5" rx="61.5725" ry="34.6989" transform="matrix(-0.977467 -0.21109 -0.253104 0.967439 1139.7 68.5664)" fill="white"/>
</g>
</g>
<g id="Smog {{alpha:catmo}}" opacity="0.67">
<path id="Union" fill-rule="evenodd" clip-rule="evenodd" d="M1112.39 203.298C1273.47 174.454 1382.29 118.91 1355.43 79.2366C1328.57 39.5631 1176.22 30.7838 1015.14 59.6275C946.427 71.9304 887.229 89.0911 844.012 107.806C785.652 94.9261 726.653 90.805 678.128 94.8557C635.879 86.0085 587.043 80.4858 534.284 79.363C529.978 79.2714 525.686 79.2099 521.408 79.178C460.744 71.8401 386.609 69.5267 307.608 73.7444C114.467 84.0558 -34.6193 129.499 -25.3865 175.244C-18.263 210.538 81.023 235.701 214.722 240.62C261.581 277.207 362.933 303.537 485.436 306.144C594.6 308.467 695.199 291.413 759.77 263.423C869.245 285.109 978.028 276.166 1012.91 240.46C1020.46 232.731 1023.98 224.321 1023.87 215.56C1052.57 212.754 1082.33 208.681 1112.39 203.298Z" fill="url(#paint2_linear_236_2)"/>
<path id="Union_2" fill-rule="evenodd" clip-rule="evenodd" d="M455.523 142.85C386.968 158.738 294.511 168.479 192.786 168.479C-18.6207 168.479 -190 126.41 -190 74.5168C-190 22.6231 -18.6207 -19.4451 192.786 -19.4451C210.273 -19.4451 227.486 -19.1573 244.35 -18.5999C293.697 -67.2984 447.401 -89.4282 611.56 -68.2803C642.108 -64.3449 671.088 -59.1594 698.05 -52.9675C787.147 -66.1511 916.778 -67.0458 1056.09 -52.5385C1299.05 -27.2386 1479.45 35.3234 1459.02 87.1976C1438.6 139.072 1225.09 160.614 982.139 135.315C939.376 130.861 898.551 125.254 860.418 118.754C796.367 156.013 659.644 171.053 514.781 152.391C494.277 149.749 474.479 146.545 455.523 142.85Z" fill="url(#paint3_linear_236_2)"/>
</g>
<path id="Beach" d="M1280 585L800 329.5L605 370L587.5 720H1280V585Z" fill="#E4AD77"/>
<g id="Water">
<path id="Water Top" d="M664.5 522L836 348.5H1324V908L664.5 522Z" fill="url(#paint4_linear_236_2)"/>
<path id="Water Side" d="M1280 467H699L775.131 721H1280V467Z" fill="url(#paint5_linear_236_2)"/>
</g>
<rect id="Oil Back" x="36" y="465" width="552" height="236" fill="url(#paint6_linear_236_2)"/>
<path id="Oil {{sy:cffuel,o:.5;1}}" d="M270 517.727C201 507.827 96 503.048 35 517.727V685H578V501C498.333 509.876 325.2 525.647 270 517.727Z" fill="url(#paint7_linear_236_2)"/>
<g id="Earth">
<g id="Ground">
<g id="Ground Base">
<path id="Base" fill-rule="evenodd" clip-rule="evenodd" d="M-0.5 440.5H681C688.5 448 711.6 465.7 744 476.5C784.5 490 843.5 517 865 547.5C886.5 578 988 668 1044.5 676C1086.24 681.91 1127.52 678.696 1166.19 675.686C1208.12 672.421 1246.97 669.396 1280 678.5V720.5H-0.5V440.5ZM302 529.5C302 532.57 296.159 535.26 287.404 536.754C305.114 540.071 318.782 545.357 325.472 551.671C338.991 550.591 353.665 550 369 550C436.379 550 491 561.417 491 575.5C491 582.154 478.807 588.213 458.835 592.753C494.84 598.751 519 609.828 519 622.5C519 636.57 489.214 648.673 446.501 654.042C448.134 655.47 449 656.963 449 658.5C449 668.717 410.72 677 363.5 677C316.28 677 278 668.717 278 658.5C278 655.113 282.207 651.938 289.553 649.207C274.695 650.372 258.89 651 242.5 651C210.153 651 180.084 648.555 155.072 644.36C164.277 647.178 170 651.128 170 655.5C170 664.06 148.062 671 121 671C93.938 671 72 664.06 72 655.5C72 646.94 93.938 640 121 640C126.653 640 132.083 640.303 137.136 640.86C105.125 633.63 85 623.154 85 611.5C85 595.938 120.886 582.477 173.036 576.039C163.551 571.618 158 566.266 158 560.5C158 545.344 196.34 533.052 243.698 533C241.965 531.933 241 530.748 241 529.5C241 524.806 254.655 521 271.5 521C288.345 521 302 524.806 302 529.5ZM526.5 588C540.031 588 551 584.642 551 580.5C551 576.358 540.031 573 526.5 573C512.969 573 502 576.358 502 580.5C502 584.642 512.969 588 526.5 588Z" fill="url(#paint8_linear_236_2)"/>
<path id="Detail" fill-rule="evenodd" clip-rule="evenodd" d="M21.7023 454.017C53.5481 465.445 90.4276 478.68 126 471C170 461.5 345.5 432 431.5 454C453.656 459.668 490.321 465.453 531.64 470.448C547.359 465.87 569.927 463 595 463C639.076 463 675.408 471.868 680.412 483.296C716.431 485.054 746.45 485.2 762.5 483C773.5 487 780.5 490 790.5 495C779.028 497.948 763.451 500.779 745.361 503.417C750.727 505.284 754 507.77 754 510.5C754 516.299 739.225 521 721 521C702.775 521 688 516.299 688 510.5C688 510.462 688.001 510.425 688.002 510.387C659.898 513.272 630.089 515.703 602.161 517.509C592.189 525.417 567.892 531 539.5 531C514.419 531 492.533 526.643 480.895 520.175C446.403 520.76 408.668 532.011 372.107 542.911C363.467 545.487 354.892 548.044 346.441 550.435C339.206 550.718 332.196 551.134 325.472 551.671C318.782 545.357 305.114 540.071 287.404 536.754C296.159 535.26 302 532.57 302 529.5C302 524.806 288.345 521 271.5 521C254.655 521 241 524.806 241 529.5C241 530.748 241.965 531.933 243.698 533C214.365 533.032 188.493 537.76 173.046 544.956C168.427 543.728 163.805 542.487 159.197 541.25L159.196 541.249C147.522 538.115 135.933 535.003 124.676 532.18C113.712 538.15 96.4349 542 77 542C47.9682 542 23.7522 533.409 18.1977 521.995C10.4609 523.005 7.21058 524.429 3.72472 525.956C2.56683 526.463 1.38294 526.981 0 527.5V446.5C6.89533 448.703 14.1575 451.309 21.7023 454.017L21.7023 454.017ZM92.8306 623.834C53.2744 638.894 9.09631 597.408 0 588.5V720C78 678 184.5 650 232 720.5C282.078 794.827 399.51 757.936 506.575 724.302C580.539 701.066 649.555 679.385 688 697C837.5 765.5 937 708 1001.5 660C974 644.5 963 636.5 936 616C905.113 607.83 872.559 604.48 840.24 604.234C824.331 597.33 801.441 593 776 593C742.621 593 713.633 600.454 699.043 611.394C692.541 603.101 670.585 597 644.5 597C613.296 597 588 605.73 588 616.5C588 625.124 604.221 632.44 626.707 635.013C615.613 637.626 606.404 639.748 599.5 641C598.288 641.22 597.087 641.429 595.894 641.627C591.363 633.826 573.431 628 552 628C531.378 628 513.995 633.395 508.675 640.753C506.598 640.457 504.528 640.157 502.459 639.857C489.593 646.095 470.004 651.088 446.501 654.042C448.134 655.47 449 656.963 449 658.5C449 668.717 410.72 677 363.5 677C316.28 677 278 668.717 278 658.5C278 655.113 282.207 651.938 289.553 649.207C274.695 650.372 258.89 651 242.5 651C210.153 651 180.084 648.555 155.072 644.36C164.277 647.178 170 651.128 170 655.5C170 664.06 148.062 671 121 671C93.938 671 72 664.06 72 655.5C72 646.94 93.938 640 121 640C126.653 640 132.083 640.303 137.136 640.86C116.956 636.302 101.499 630.454 92.8306 623.834ZM37 566.5C37 572.299 22.2254 577 4 577C-14.2254 577 -29 572.299 -29 566.5C-29 560.701 -14.2254 556 4 556C22.2254 556 37 560.701 37 566.5ZM1304 720C1304 732.15 1262.14 742 1210.5 742C1158.86 742 1117 732.15 1117 720C1117 707.85 1158.86 698 1210.5 698C1262.14 698 1304 707.85 1304 720Z" fill="url(#paint9_linear_236_2)"/>
</g>
<g id="Oil Outline">
<mask id="path-47-outside-1_236_2" maskUnits="userSpaceOnUse" x="56" y="505" width="511" height="188" fill="black">
<rect fill="white" x="56" y="505" width="511" height="188"/>
<path fill-rule="evenodd" clip-rule="evenodd" d="M287.404 536.754C296.159 535.26 302 532.57 302 529.5C302 524.806 288.345 521 271.5 521C254.655 521 241 524.806 241 529.5C241 530.748 241.965 531.933 243.698 533C196.34 533.052 158 545.344 158 560.5C158 566.266 163.551 571.618 173.036 576.039C120.886 582.477 85 595.937 85 611.5C85 623.154 105.125 633.63 137.136 640.86C132.083 640.303 126.653 640 121 640C93.938 640 72 646.94 72 655.5C72 664.06 93.938 671 121 671C148.062 671 170 664.06 170 655.5C170 651.128 164.277 647.178 155.072 644.36C180.084 648.554 210.153 651 242.5 651C258.89 651 274.695 650.372 289.553 649.207C282.207 651.938 278 655.113 278 658.5C278 668.717 316.28 677 363.5 677C410.72 677 449 668.717 449 658.5C449 656.963 448.134 655.47 446.501 654.042C489.214 648.673 519 636.57 519 622.5C519 609.828 494.84 598.751 458.835 592.753C478.807 588.213 491 582.154 491 575.5C491 561.417 436.379 550 369 550C353.665 550 338.991 550.591 325.472 551.671C318.782 545.357 305.114 540.071 287.404 536.754ZM551 580.5C551 584.642 540.031 588 526.5 588C512.969 588 502 584.642 502 580.5C502 576.358 512.969 573 526.5 573C540.031 573 551 576.358 551 580.5Z"/>
</mask>
<path d="M287.404 536.754L284.713 520.982L284.459 552.481L287.404 536.754ZM243.698 533L243.715 549L300.081 548.938L252.089 519.377L243.698 533ZM173.036 576.039L174.997 591.919L230.329 585.088L179.795 561.537L173.036 576.039ZM137.136 640.86L135.382 656.764L140.661 625.253L137.136 640.86ZM155.072 644.36L157.718 628.581L150.388 659.66L155.072 644.36ZM289.553 649.207L295.128 664.204L288.303 633.256L289.553 649.207ZM446.501 654.042L444.506 638.167L409.129 642.613L435.968 666.086L446.501 654.042ZM458.835 592.753L455.288 577.152L456.206 608.536L458.835 592.753ZM325.472 551.671L314.489 563.307L319.659 568.186L326.745 567.62L325.472 551.671ZM286 529.5C286 524.818 288.298 521.785 289.452 520.593C290.542 519.467 291.336 519.16 290.984 519.331C290.338 519.646 288.34 520.363 284.713 520.982L290.096 552.526C295.223 551.651 300.523 550.277 304.986 548.105C307.189 547.034 309.991 545.385 312.449 542.845C314.971 540.238 318 535.717 318 529.5H286ZM271.5 537C278.897 537 285.009 537.854 288.771 538.902C290.765 539.458 291.217 539.827 290.8 539.552C290.563 539.396 289.547 538.704 288.484 537.257C287.331 535.687 286 533.018 286 529.5H318C318 520.018 311.27 514.718 308.406 512.831C304.902 510.522 300.888 509.06 297.362 508.077C290.085 506.049 280.947 505 271.5 505V537ZM257 529.5C257 533.018 255.669 535.687 254.516 537.257C253.453 538.704 252.437 539.396 252.2 539.552C251.783 539.827 252.235 539.458 254.229 538.902C257.991 537.854 264.103 537 271.5 537V505C262.053 505 252.915 506.049 245.638 508.077C242.112 509.06 238.098 510.522 234.594 512.831C231.73 514.718 225 520.018 225 529.5H257ZM252.089 519.377C252.218 519.457 253.214 520.069 254.305 521.464C255.489 522.979 257 525.743 257 529.5H225C225 539.534 232.48 544.882 235.307 546.623L252.089 519.377ZM174 560.5C174 563.991 171.802 564.533 174.394 562.569C176.728 560.8 181.117 558.522 187.977 556.321C201.516 551.978 221.22 549.025 243.715 549L243.68 517C218.818 517.028 195.673 520.246 178.202 525.851C169.558 528.624 161.402 532.264 155.067 537.064C148.99 541.67 142 549.431 142 560.5H174ZM179.795 561.537C176.028 559.781 174.112 558.31 173.357 557.544C172.662 556.839 174 557.867 174 560.5H142C142 568.899 146.113 575.487 150.565 580.005C154.956 584.461 160.559 587.877 166.277 590.542L179.795 561.537ZM101 611.5C101 614.244 99.377 614.536 101.782 612.492C104.082 610.538 108.396 607.97 115.337 605.23C129.074 599.807 149.605 595.053 174.997 591.919L171.076 560.16C144.317 563.463 120.83 568.658 103.587 575.466C95.037 578.841 87.1203 582.958 81.0618 588.106C75.1087 593.165 69 600.975 69 611.5H101ZM140.661 625.253C125.324 621.789 113.939 617.769 106.788 613.827C98.264 609.128 101 607.669 101 611.5H69C69 626.986 81.7987 636.591 91.3396 641.851C102.254 647.868 116.937 652.701 133.611 656.467L140.661 625.253ZM121 656C126.09 656 130.933 656.273 135.382 656.764L138.889 624.956C133.232 624.333 127.217 624 121 624V656ZM88 655.5C88 660.732 84.668 662.852 85.4333 662.28C85.9132 661.921 87.625 660.919 91.1773 659.795C98.0955 657.606 108.642 656 121 656V624C106.296 624 92.3425 625.863 81.5262 629.285C76.2113 630.966 70.7472 633.304 66.2681 636.654C62.0743 639.79 56 645.987 56 655.5H88ZM121 655C108.642 655 98.0955 653.394 91.1773 651.205C87.625 650.081 85.9132 649.079 85.4333 648.72C84.6679 648.148 88 650.268 88 655.5H56C56 665.013 62.0743 671.21 66.2681 674.346C70.7472 677.696 76.2113 680.034 81.5262 681.715C92.3425 685.137 106.296 687 121 687V655ZM154 655.5C154 650.268 157.332 648.148 156.567 648.72C156.087 649.079 154.375 650.081 150.823 651.205C143.904 653.394 133.358 655 121 655V687C135.704 687 149.657 685.137 160.474 681.715C165.789 680.034 171.253 677.696 175.732 674.346C179.926 671.21 186 665.013 186 655.5H154ZM150.388 659.66C152.152 660.2 153.566 660.739 154.65 661.233C155.758 661.739 156.341 662.114 156.549 662.266C156.795 662.446 156.273 662.131 155.615 661.135C154.883 660.027 154 658.075 154 655.5H186C186 645.787 179.682 639.537 175.427 636.428C170.839 633.076 165.235 630.739 159.755 629.061L150.388 659.66ZM242.5 635C210.909 635 181.736 632.608 157.718 628.581L152.426 660.14C178.433 664.501 209.398 667 242.5 667V635ZM288.303 633.256C273.873 634.387 258.486 635 242.5 635V667C259.293 667 275.516 666.357 290.804 665.158L288.303 633.256ZM294 658.5C294 661.127 293.148 663.187 292.349 664.469C291.969 665.078 291.611 665.501 291.374 665.753C291.136 666.006 290.976 666.134 290.948 666.156C290.919 666.179 291.201 665.957 291.97 665.562C292.716 665.178 293.754 664.715 295.128 664.204L283.978 634.21C279.58 635.845 274.936 638.021 271.095 641.059C267.489 643.911 262 649.668 262 658.5H294ZM363.5 661C340.676 661 320.489 658.986 306.426 655.943C299.264 654.394 294.545 652.756 292.006 651.457C290.714 650.796 290.78 650.619 291.362 651.235C292.014 651.924 294 654.414 294 658.5H262C262 665.141 265.182 670.124 268.112 673.222C270.972 676.246 274.398 678.393 277.432 679.945C283.546 683.073 291.348 685.421 299.659 687.22C316.54 690.872 339.104 693 363.5 693V661ZM433 658.5C433 654.414 434.986 651.924 435.638 651.235C436.22 650.619 436.286 650.796 434.994 651.457C432.455 652.756 427.736 654.394 420.574 655.943C406.511 658.986 386.324 661 363.5 661V693C387.896 693 410.46 690.872 427.341 687.22C435.652 685.421 443.454 683.073 449.568 679.945C452.602 678.393 456.028 676.246 458.888 673.222C461.818 670.124 465 665.141 465 658.5H433ZM435.968 666.086C435.838 665.972 433 663.447 433 658.5H465C465 650.479 460.43 644.968 457.034 641.998L435.968 666.086ZM503 622.5C503 619.932 504.422 619.378 502.82 620.859C501.222 622.335 497.995 624.468 492.489 626.818C481.583 631.471 465.068 635.582 444.506 638.167L448.496 669.917C470.647 667.133 490.382 662.508 505.047 656.25C512.327 653.144 519.216 649.278 524.538 644.36C529.855 639.447 535 632.103 535 622.5H503ZM456.206 608.536C473.443 611.407 486.824 615.35 495.448 619.525C499.788 621.626 502.131 623.411 503.179 624.491C504.165 625.507 503 624.794 503 622.5H535C535 613.87 530.815 607.021 526.145 602.208C521.539 597.46 515.591 593.724 509.391 590.723C496.934 584.692 480.232 580.097 461.465 576.971L456.206 608.536ZM475 575.5C475 571.922 476.711 569.852 477.032 569.505C477.275 569.242 476.86 569.76 474.964 570.756C471.206 572.731 464.71 575.009 455.288 577.152L462.383 608.355C472.931 605.957 482.519 602.936 489.85 599.082C493.499 597.165 497.38 594.636 500.534 591.224C503.764 587.727 507 582.405 507 575.5H475ZM369 566C401.931 566 431.282 568.801 451.993 573.13C462.481 575.322 469.908 577.736 474.324 579.918C476.563 581.025 477.208 581.677 477.088 581.554C476.914 581.376 475 579.299 475 575.5H507C507 568.18 503.379 562.666 499.954 559.168C496.584 555.725 492.436 553.175 488.501 551.23C480.571 547.311 470.131 544.23 458.541 541.807C435.097 536.907 403.448 534 369 534V566ZM326.745 567.62C339.82 566.576 354.069 566 369 566V534C353.262 534 338.162 534.607 324.198 535.722L326.745 567.62ZM284.459 552.481C301.665 555.704 311.355 560.348 314.489 563.307L336.454 540.035C326.209 530.365 308.564 524.439 290.35 521.028L284.459 552.481ZM526.5 604C534.398 604 542.175 603.041 548.508 601.103C551.575 600.164 555.222 598.721 558.456 596.381C561.326 594.304 567 589.145 567 580.5H535C535 573.926 539.303 570.741 539.694 570.458C540.447 569.913 540.507 570.086 539.141 570.504C536.606 571.28 532.133 572 526.5 572V604ZM486 580.5C486 589.145 491.674 594.304 494.544 596.381C497.778 598.721 501.425 600.164 504.492 601.103C510.825 603.041 518.602 604 526.5 604V572C520.867 572 516.394 571.28 513.859 570.504C512.493 570.086 512.553 569.913 513.306 570.458C513.697 570.741 518 573.926 518 580.5H486ZM526.5 557C518.602 557 510.825 557.959 504.492 559.897C501.425 560.836 497.778 562.279 494.544 564.619C491.674 566.696 486 571.855 486 580.5H518C518 587.074 513.697 590.259 513.306 590.542C512.553 591.087 512.493 590.914 513.859 590.496C516.394 589.72 520.867 589 526.5 589V557ZM567 580.5C567 571.855 561.326 566.696 558.456 564.619C555.222 562.279 551.575 560.836 548.508 559.897C542.175 557.959 534.398 557 526.5 557V589C532.133 589 536.606 589.72 539.141 590.496C540.507 590.914 540.447 591.087 539.694 590.542C539.303 590.259 535 587.074 535 580.5H567Z" fill="url(#paint10_linear_236_2)" mask="url(#path-47-outside-1_236_2)"/>
</g>
</g>
<g id="Grass">
<path id="Grass_2" d="M745.5 395C726.7 412.6 694.667 432.667 681 440.5H-0.5V329.5H800C789.667 344 764.3 377.4 745.5 395Z" fill="url(#paint11_linear_236_2)"/>
<path id="Grass Edge" fill-rule="evenodd" clip-rule="evenodd" d="M0 453.636V440H178H181H397H401H681L671.5 463C669.125 453.839 664.152 451.242 661.201 449.701C659.803 448.971 658.859 448.478 658.859 447.636C658.859 445.018 650.809 456.364 649 459.636L642.578 447.636C638.055 448 629.01 449.818 629.01 454.182C629.01 458.545 622.678 451.636 619.513 447.636C617.703 449.455 614.085 454.4 614.085 459.636C614.085 464.873 609.563 453.818 607.302 447.636C600.065 447.636 585.593 449.6 585.593 457.455C585.593 462.78 583.996 460.082 581.669 456.149C579.706 452.832 577.222 448.635 574.739 447.636C570.397 445.891 566.598 451.273 565.241 454.182L557.1 447.636L551.673 454.182L546.246 447.636C542.628 446.909 535.121 447.2 534.035 454.182C532.95 461.164 529.06 460.727 527.251 459.636C528.608 457.818 530.508 453.527 527.251 450.909C523.181 447.636 513.683 450.909 513.683 454.182C513.683 456.8 506.447 450.909 502.829 447.636L497.402 457.455L494.688 462.909L491.975 452L483.834 447.636V454.182L475.693 447.636L468.91 459.636L464.839 447.636L456.698 450.909L451.271 447.636L448.558 464L444.487 454.182L440.417 450.909L436.347 457.455L432.276 450.909L425.492 447.636V457.455L418.709 452L411.925 450.909V457.455L405.141 452L401.07 462.909L401 462.739V463.864C398.759 459.697 394.276 450.682 394.276 447.955C394.276 445.227 391.288 451.364 389.794 454.773L380.829 447.955C377.094 448.333 369.623 450.227 369.623 454.773C369.623 459.318 364.394 452.121 361.779 447.955C360.285 449.848 357.296 455 357.296 460.455C357.296 465.909 353.561 454.394 351.693 447.955C345.717 447.955 333.764 450 333.764 458.182C333.764 463.729 332.445 460.919 330.523 456.822C328.901 453.366 326.85 448.995 324.799 447.955C321.213 446.136 318.075 451.742 316.955 454.773L310.231 447.955L305.749 454.773L301.266 447.955C298.278 447.197 292.077 447.5 291.181 454.773C290.284 462.045 287.072 461.591 285.578 460.455C286.698 458.561 288.267 454.091 285.578 451.364C282.216 447.955 274.372 451.364 274.372 454.773C274.372 457.5 268.395 451.364 265.407 447.955L260.925 458.182L258.683 463.864L256.442 452.5L249.719 447.955V454.773L242.995 447.955L237.392 460.455L234.03 447.955L227.307 451.364L222.824 447.955L220.583 465L217.221 454.773L213.859 451.364L210.497 458.182L207.136 451.364L201.533 447.955V458.182L195.93 452.5L190.327 451.364V458.182L184.724 452.5L181.362 463.864L181 462.763V463.864C179.181 459.697 175.543 450.682 175.543 447.955C175.543 445.227 173.117 451.364 171.905 454.773L164.628 447.955C161.596 448.333 155.533 450.227 155.533 454.773C155.533 459.318 151.288 452.121 149.166 447.955C147.953 449.848 145.528 455 145.528 460.455C145.528 465.909 142.496 454.394 140.98 447.955C136.129 447.955 126.427 450 126.427 458.182C126.427 463.729 125.357 460.919 123.797 456.822C122.481 453.366 120.816 448.995 119.151 447.955C116.24 446.136 113.693 451.742 112.784 454.773L107.327 447.955L103.688 454.773L100.05 447.955C97.6248 447.197 92.592 447.5 91.8643 454.773C91.1367 462.045 88.5293 461.591 87.3166 460.455C88.2261 458.561 89.4995 454.091 87.3166 451.364C84.5879 447.955 78.2211 451.364 78.2211 454.773C78.2211 457.5 73.3702 451.364 70.9447 447.955L67.3065 458.182L65.4874 463.864L63.6683 452.5L58.2111 447.955V454.773L52.7538 447.955L48.206 460.455L45.4774 447.955L40.0201 451.364L36.3819 447.955L34.5628 465L31.8342 454.773L29.1055 451.364L26.3769 458.182L23.6482 451.364L19.1005 447.955V458.182L14.5528 452.5L10.005 451.364V458.182L5.45729 452.5L2.72864 463.864L0 453.636Z" fill="#6A9B39"/>
</g>
</g>
<g id="Factory">
<path id="Shadow" d="M126.5 440L52 410L85 362.5H257.025L269.5 349.5L270 353L260.896 362.5H357.5L386.5 384L371 405H350.5L427.5 440H126.5Z" fill="#75A741"/>
<g id="Large Building">
<path id="Vector 18" d="M191 284L198.237 275.98V259L191 266.587V284Z" fill="#B5B5B5"/>
<path id="Vector 8" d="M222 410H52V289.5H222V410Z" fill="#D8D8D8"/>
<path id="Vector 9" d="M222 410L274.5 354.5V237L222 289.5V410Z" fill="#B5B5B5"/>
<path id="Vector 10" d="M222 289.5H52L123.5 237H274.5L222 289.5Z" fill="#555555"/>
<g id="Group 4">
<ellipse id="Ellipse 11" cx="146.5" cy="251" rx="17.5" ry="5" fill="url(#paint12_linear_236_2)"/>
<rect id="Rectangle 3" x="129" y="160" width="35" height="91" fill="url(#paint13_linear_236_2)"/>
<ellipse id="Ellipse 12" cx="146.5" cy="160" rx="17.5" ry="5" fill="#ECECEC"/>
<ellipse id="Ellipse 13" cx="146.5" cy="160" rx="14.5" ry="3" fill="#555555"/>
</g>
<path id="Vector 11" d="M121 290H52V241.5H121V290Z" fill="#D8D8D8"/>
<path id="Vector 12" d="M121 290L142 267.543V220L121 241.243V290Z" fill="#B5B5B5"/>
<path id="Vector 13" d="M137.251 222L120.158 239.5H58.0427L81.5833 222H137.251Z" fill="#555555" stroke="#ECECEC" stroke-width="4"/>
<g id="Group 1">
<path id="Union_3" fill-rule="evenodd" clip-rule="evenodd" d="M228 160H193V251C193 253.761 200.835 256 210.5 256C220.165 256 228 253.761 228 251V160Z" fill="url(#paint14_linear_236_2)"/>
<ellipse id="Ellipse 12_2" cx="210.5" cy="160" rx="17.5" ry="5" fill="#ECECEC"/>
<ellipse id="Ellipse 13_2" cx="210.5" cy="160" rx="14.5" ry="3" fill="#555555"/>
</g>
<g id="Group 3">
<path id="Vector 17" d="M162 284H137V266.566H162V284Z" fill="#D8D8D8"/>
<path id="Vector 18_2" d="M162 284L169.237 275.98V259L162 266.587V284Z" fill="#B5B5B5"/>
<path id="Vector 19" d="M162 266.566H137L147.359 259H169.237L162 266.566Z" fill="#ECECEC"/>
</g>
<g id="Group 2">
<path id="Vector 17_2" d="M191 284H166V266.566H191V284Z" fill="#D8D8D8"/>
<path id="Vector 20" d="M191 284L198.237 275.98V259L191 266.587V284Z" fill="#B5B5B5"/>
<path id="Vector 19_2" d="M191 266.566H166L176.359 259H198.237L191 266.566Z" fill="#ECECEC"/>
</g>
<g id="Group 5">
<path id="Vector 17_3" d="M220 284H195V266.566H220V284Z" fill="#D8D8D8"/>
<path id="Vector 18_3" d="M220 284L227.237 275.98V259L220 266.587V284Z" fill="#B5B5B5"/>
<path id="Vector 19_3" d="M220 266.566H195L205.359 259H227.237L220 266.566Z" fill="#ECECEC"/>
</g>
<path id="Vector 25" d="M224 401L222 399L271.5 347.5L274 348.5L224 401Z" fill="#A9A9A9"/>
<rect id="Rectangle 4" x="63.5" y="310.5" width="18" height="29" fill="#EADF83" stroke="#B5B5B5" stroke-width="3"/>
<rect id="Rectangle 5" x="88.5" y="310.5" width="18" height="29" fill="#EADF83" stroke="#B5B5B5" stroke-width="3"/>
<rect id="Rectangle 6" x="135.5" y="310.5" width="18" height="29" fill="#EADF83" stroke="#B5B5B5" stroke-width="3"/>
<rect id="Rectangle 7" x="160.5" y="310.5" width="18" height="29" fill="#EADF83" stroke="#B5B5B5" stroke-width="3"/>
<rect id="Rectangle 8" x="185.5" y="310.5" width="18" height="29" fill="#EADF83" stroke="#B5B5B5" stroke-width="3"/>
<path id="Rectangle 18" d="M233.003 296.879L232.5 297.326V298V324V327.909L235.115 325.003L244.115 315.003L244.5 314.576V314V290V286.66L242.003 288.879L233.003 296.879ZM253.503 277.379L253 277.826V278.5V304.5V308.409L255.615 305.503L264.615 295.503L265 295.076V294.5V270.5V267.16L262.503 269.379L253.503 277.379Z" fill="#CEC464" stroke="#ACACAC" stroke-width="3"/>
<path id="Rectangle 19" d="M233.003 338.379L232.5 338.826V339.5V365.5V369.409L235.115 366.503L244.115 356.503L244.5 356.076V355.5V331.5V328.16L242.003 330.379L233.003 338.379ZM253.503 318.879L253 319.326V320V346V349.909L255.615 347.003L264.615 337.003L265 336.576V336V312V308.66L262.503 310.879L253.503 318.879Z" fill="#CEC464" stroke="#ACACAC" stroke-width="3"/>
<rect id="Rectangle 9" x="63.5" y="350.5" width="18" height="29" fill="#EADF83" stroke="#B5B5B5" stroke-width="3"/>
<rect id="Rectangle 10" x="88.5" y="350.5" width="18" height="29" fill="#EADF83" stroke="#B5B5B5" stroke-width="3"/>
<rect id="Rectangle 16" x="63.5" y="254.5" width="18" height="29" fill="#EADF83" stroke="#B5B5B5" stroke-width="3"/>
<rect id="Rectangle 17" x="88.5" y="254.5" width="18" height="29" fill="#EADF83" stroke="#B5B5B5" stroke-width="3"/>
<rect id="Rectangle 11" x="135.5" y="350.5" width="18" height="29" fill="#EADF83" stroke="#B5B5B5" stroke-width="3"/>
<rect id="Rectangle 12" x="160.5" y="350.5" width="18" height="29" fill="#EADF83" stroke="#B5B5B5" stroke-width="3"/>
<rect id="Rectangle 13" x="185.5" y="350.5" width="18" height="29" fill="#EADF83" stroke="#B5B5B5" stroke-width="3"/>
<g id="Group 11">
<path id="Vector 24" d="M48 401L52 398V399H222L224 401H48Z" fill="#BCBCBC"/>
<path id="Rectangle 22" d="M48 401H224V410H48V401Z" fill="#A4A4A4"/>
<path id="Vector 23" d="M275.5 346.5L224 401V410L275.5 356.5V346.5Z" fill="#888686"/>
</g>
</g>
<g id="Small Building">
<path id="Vector 14" d="M336 385H267V336H336V385Z" fill="#D96464"/>
<path id="Vector 15" d="M336 385L357 362.543V315L336 336.243V385Z" fill="#CE5757"/>
<path id="Vector 16" d="M352.253 317L335.657 334H273.158L296.571 317H352.253Z" fill="#555555" stroke="#F07777" stroke-width="4"/>
<rect id="Rectangle 20" x="305.5" y="354.5" width="18" height="29" fill="#B5B5B5" stroke="#686363" stroke-width="3"/>
</g>
</g>
<g id="Pollution Plume B {{sy:catmo,o:.5;1,a:catmo}}" opacity="0.7">
<g id="Group 6">
<path id="Union_4" fill-rule="evenodd" clip-rule="evenodd" d="M231.392 3.66524C222.201 -7.35182 208.981 -13.7029 195.927 -11.9594C175.569 -9.24031 163.324 12.1364 168.577 35.7868C173.83 59.4372 194.592 76.4054 214.95 73.6864C215.285 73.6416 215.618 73.5918 215.949 73.5369C215.814 74.1695 215.692 74.8167 215.584 75.4774C215.493 75.4688 215.402 75.4613 215.312 75.4548C203.333 74.5969 192.827 92.3541 191.846 115.117C190.865 137.879 199.781 157.027 211.76 157.885C222.877 158.681 232.725 143.445 234.868 123.054C235.86 123.28 236.856 123.36 237.848 123.283C247.414 122.539 252.984 107.426 250.289 89.5278C248.691 78.915 244.546 69.7058 239.442 64.1221C245.55 60.0213 251.562 54.5901 256.87 48.0908C273.159 28.1451 276.65 5.69216 264.667 -2.05918C256.693 -7.2176 243.875 -4.56511 231.392 3.66524Z" fill="#818181" fill-opacity="0.7"/>
<path id="Union_5" fill-rule="evenodd" clip-rule="evenodd" d="M202.061 25.3001C196.038 23.5541 190.288 23.9026 185.617 26.7577C173.093 34.4125 173.068 57.1872 185.561 77.6264C185.625 77.7312 185.689 77.8357 185.753 77.9399C183.674 87.3011 183.199 99.202 184.793 111.949C188.33 140.222 200.712 161.952 212.45 160.484C224.187 159.015 230.835 134.905 227.298 106.632C227.127 105.267 226.936 103.917 226.725 102.584C228.175 102.169 229.558 101.569 230.858 100.774C242.149 93.8728 243.281 74.6803 234.238 55.9902C239.387 48.2847 243.178 36.4748 244.192 23.0361C246.021 -1.19557 238.128 -21.5467 226.563 -22.4195C214.998 -23.2924 204.14 -4.35631 202.311 19.8753C202.173 21.708 202.09 23.5185 202.061 25.3001Z" fill="#767474"/>
</g>
</g>
<g id="Pollution Plume A {{sy:catmo,o:.5;1,a:catmo}}" opacity="0.7">
<g id="Group 6_2">
<path id="Union_6" fill-rule="evenodd" clip-rule="evenodd" d="M162.601 35.9801C163.069 35.9419 163.536 35.9396 164.001 35.9742C176.187 36.8809 182.692 62.7911 178.529 93.8463C175.268 118.17 166.431 138.436 156.897 145.643C154.304 153.413 150.01 158.605 144.973 158.995C136.246 159.671 128.592 145.675 127.877 127.733C127.863 127.372 127.851 127.011 127.843 126.652C122.612 121.884 118.065 113.211 115.878 102.654C112.217 84.9728 116.565 68.7042 125.592 66.3172C127.496 65.8137 129.456 65.9681 131.398 66.6913C127.671 60.34 124.958 51.8134 124.052 42.3414C122.101 21.9517 129.261 4.90264 140.045 4.26137C150.106 3.66311 159.767 17.5572 162.601 35.9801Z" fill="#818181" fill-opacity="0.7"/>
<path id="Union_7" fill-rule="evenodd" clip-rule="evenodd" d="M134.079 54.2555C126.02 59.1721 123.357 73.7981 128.278 89.4242C130.158 95.3939 132.905 100.745 136.128 105.114C135.052 109.286 134.205 113.823 133.653 118.597C131.076 140.882 135.919 159.886 144.471 161.043C153.023 162.2 162.044 145.073 164.621 122.788C165.086 118.759 165.31 114.838 165.313 111.109C169.84 104.314 170.699 92.568 166.802 80.1949C165.363 75.626 163.416 71.4196 161.137 67.7382C163.266 61.3439 164.253 52.8956 163.615 43.7453C162.282 24.6458 154.372 9.72025 145.946 10.4082C137.52 11.0962 131.769 27.1371 133.101 46.2367C133.295 49.0092 133.627 51.6938 134.079 54.2555Z" fill="#767474"/>
</g>
</g>
<g id="Tree">
<path id="Shadow_2" fill-rule="evenodd" clip-rule="evenodd" d="M609.843 355.863C613.755 353.705 616 351.188 616 348.5C616 340.492 596.077 334 571.5 334C546.923 334 527 340.492 527 348.5C527 356.124 545.059 362.374 568 362.956C568 362.971 568 362.985 568 363C568 367.971 579.641 372 594 372C608.359 372 620 367.971 620 363C620 360.094 616.02 357.509 609.843 355.863Z" fill="#74A741"/>
<g id="Leaves">
<path id="Union_8" fill-rule="evenodd" clip-rule="evenodd" d="M592 230C592 232.027 591.681 233.998 591.08 235.886C601.035 233.68 610.463 235.681 616.209 242.207C626.035 253.368 621.371 273.534 605.791 287.251C593.513 298.061 578.118 301.639 567.336 297.206C558.023 301.294 545.06 300.758 532.832 294.841C514.147 285.8 504.25 267.62 510.727 254.235C514.086 247.292 521.192 243.003 529.861 241.745C527.397 238.243 526 234.245 526 230C526 216.193 540.775 205 559 205C577.225 205 592 216.193 592 230Z" fill="url(#paint15_linear_236_2)"/>
<path id="Union_9" fill-rule="evenodd" clip-rule="evenodd" d="M591.957 227.668C594.12 234.373 592.944 241.466 589.287 247.554C603.851 242.914 616.717 246.664 619.64 257.286C623.026 269.595 611.779 286.47 594.518 294.978C584.176 300.075 574.021 301.013 566.814 298.297C559.531 302.258 548.966 301.62 538.911 295.724C524.049 287.009 515.928 270.107 520.773 257.972C523.136 252.056 528.144 248.365 534.379 247.146C534.28 246.877 534.187 246.605 534.099 246.331C529.704 232.707 539.094 217.485 555.071 212.331C571.048 207.178 587.562 214.044 591.957 227.668Z" fill="url(#paint16_linear_236_2)"/>
</g>
<path id="Trunk" d="M561.5 344.5C561.5 341 562.5 333 564.5 321C567.048 305.711 565 293 561.5 280C556 266 550.5 261.5 542.5 262C536.1 262.4 531.5 267.167 530 269.5C531.833 265.833 537.1 258.6 543.5 259C551.5 259.5 558.5 264 560 267.5C561.5 271 561 256.5 557.5 249C554.7 243 542.667 239.167 537 238C540.667 238 548 238 553.5 241.5C549.1 236.3 549 225.333 549.5 221.5C549.667 223.167 551.2 228.4 552 232C552.8 235.6 553.056 236.5 555 240C557.5 244.5 560 245.5 561.5 250C561.711 250.632 564 242 567 238C569.4 234.8 576.333 231.333 579.5 230C576.333 231.667 569.7 236 568.5 240C567 245 563 251.5 564.5 259C566 266.5 566 275.5 568.5 283C571 290.5 576.5 276.5 578 272C580 266 577 261.5 570 257.5C577 258 582.2 262.7 581 269.5C580.824 270.5 586.401 263.049 591.5 260.5C595.988 258.256 603.699 259.235 608.485 260.182C609.07 260.254 609.581 260.36 610 260.5C609.539 260.398 609.031 260.29 608.485 260.182C605.575 259.825 600.829 260.335 596.5 262C590 264.5 584.5 274.5 581 280C577.5 285.5 583.5 276.5 590 277C595.2 277.4 600 281.167 600 283C599.167 281.333 591.7 278.7 588.5 279.5C584.5 280.5 571.5 290.5 572 298C572.5 305.5 573.5 324 576.5 332C578.9 338.4 580 342.5 580 345.5C578 347 573 347.5 570.5 347.5C566.5 347.5 563.5 346 561.5 344.5Z" fill="url(#paint17_linear_236_2)"/>
</g>
<g id="Tree_2">
<path id="Shadow_3" fill-rule="evenodd" clip-rule="evenodd" d="M722.101 374.863C726.013 372.705 728.258 370.188 728.258 367.5C728.258 359.492 708.334 353 683.758 353C659.181 353 639.258 359.492 639.258 367.5C639.258 375.124 657.317 381.374 680.258 381.956C680.258 381.971 680.258 381.985 680.258 382C680.258 386.971 691.898 391 706.258 391C720.617 391 732.258 386.971 732.258 382C732.258 379.094 728.278 376.509 722.101 374.863Z" fill="#74A741"/>
<g id="Leaves_2">
<path id="Union_10" fill-rule="evenodd" clip-rule="evenodd" d="M704.258 249C704.258 251.027 703.939 252.998 703.338 254.886C713.292 252.68 722.721 254.681 728.466 261.207C738.292 272.368 733.628 292.534 718.049 306.251C705.77 317.061 690.376 320.639 679.594 316.206C670.281 320.294 657.318 319.758 645.089 313.841C626.405 304.8 616.508 286.62 622.985 273.235C626.344 266.292 633.45 262.003 642.119 260.745C639.654 257.243 638.258 253.245 638.258 249C638.258 235.193 653.032 224 671.258 224C689.483 224 704.258 235.193 704.258 249Z" fill="url(#paint18_linear_236_2)"/>
<path id="Union_11" fill-rule="evenodd" clip-rule="evenodd" d="M704.215 246.668C706.378 253.373 705.201 260.466 701.544 266.554C716.109 261.914 728.975 265.664 731.898 276.286C735.284 288.595 724.037 305.47 706.776 313.978C696.433 319.075 686.279 320.013 679.071 317.297C671.788 321.258 661.224 320.62 651.169 314.724C636.306 306.009 628.186 289.107 633.031 276.972C635.393 271.056 640.401 267.365 646.636 266.146C646.538 265.877 646.445 265.605 646.356 265.331C641.962 251.707 651.351 236.485 667.328 231.331C683.306 226.178 699.82 233.044 704.215 246.668Z" fill="url(#paint19_linear_236_2)"/>
</g>
<path id="Trunk_2" d="M673.758 363.5C673.758 360 674.758 352 676.758 340C679.306 324.711 677.258 312 673.758 299C668.258 285 662.758 280.5 654.758 281C648.358 281.4 643.758 286.167 642.258 288.5C644.091 284.833 649.358 277.6 655.758 278C663.758 278.5 670.758 283 672.258 286.5C673.758 290 673.258 275.5 669.758 268C666.958 262 654.924 258.167 649.258 257C652.924 257 660.258 257 665.758 260.5C661.358 255.3 661.258 244.333 661.758 240.5C661.924 242.167 663.458 247.4 664.258 251C665.058 254.6 665.313 255.5 667.258 259C669.758 263.5 672.258 264.5 673.758 269C673.968 269.632 676.258 261 679.258 257C681.658 253.8 688.591 250.333 691.758 249C688.591 250.667 681.958 255 680.758 259C679.258 264 675.258 270.5 676.758 278C678.258 285.5 678.258 294.5 680.758 302C683.258 309.5 688.758 295.5 690.258 291C692.258 285 689.258 280.5 682.258 276.5C689.258 277 694.458 281.7 693.258 288.5C693.081 289.5 698.659 282.049 703.758 279.5C708.246 277.256 715.956 278.235 720.743 279.182C721.328 279.254 721.839 279.36 722.258 279.5C721.797 279.398 721.289 279.29 720.743 279.182C717.832 278.825 713.087 279.335 708.758 281C702.258 283.5 696.758 293.5 693.258 299C689.758 304.5 695.758 295.5 702.258 296C707.458 296.4 712.258 300.167 712.258 302C711.424 300.333 703.958 297.7 700.758 298.5C696.758 299.5 683.758 309.5 684.258 317C684.758 324.5 685.758 343 688.758 351C691.158 357.4 692.258 361.5 692.258 364.5C690.258 366 685.258 366.5 682.758 366.5C678.758 366.5 675.758 365 673.758 363.5Z" fill="url(#paint20_linear_236_2)"/>
</g>
<g id="Tree_3">
<path id="Shadow_4" fill-rule="evenodd" clip-rule="evenodd" d="M529.101 390.863C533.013 388.705 535.258 386.188 535.258 383.5C535.258 375.492 515.334 369 490.758 369C466.181 369 446.258 375.492 446.258 383.5C446.258 391.124 464.317 397.374 487.258 397.956C487.258 397.971 487.258 397.985 487.258 398C487.258 402.971 498.898 407 513.258 407C527.617 407 539.258 402.971 539.258 398C539.258 395.094 535.278 392.509 529.101 390.863Z" fill="#74A741"/>
<g id="Leaves_3">
<path id="Union_12" fill-rule="evenodd" clip-rule="evenodd" d="M511.258 265C511.258 267.027 510.939 268.998 510.338 270.886C520.292 268.68 529.721 270.681 535.466 277.207C545.292 288.368 540.628 308.534 525.049 322.251C512.77 333.061 497.376 336.639 486.594 332.206C477.281 336.294 464.318 335.758 452.089 329.841C433.405 320.8 423.508 302.62 429.985 289.235C433.344 282.292 440.45 278.003 449.119 276.745C446.654 273.243 445.258 269.245 445.258 265C445.258 251.193 460.032 240 478.258 240C496.483 240 511.258 251.193 511.258 265Z" fill="url(#paint21_linear_236_2)"/>
<path id="Union_13" fill-rule="evenodd" clip-rule="evenodd" d="M511.215 262.668C513.378 269.373 512.201 276.466 508.544 282.554C523.109 277.914 535.975 281.664 538.898 292.286C542.284 304.595 531.037 321.47 513.776 329.978C503.433 335.075 493.279 336.013 486.071 333.297C478.788 337.258 468.224 336.62 458.169 330.724C443.306 322.009 435.186 305.107 440.031 292.972C442.393 287.056 447.401 283.365 453.636 282.146C453.538 281.877 453.445 281.605 453.356 281.331C448.962 267.707 458.351 252.485 474.328 247.331C490.306 242.178 506.82 249.044 511.215 262.668Z" fill="url(#paint22_linear_236_2)"/>
</g>
<path id="Trunk_3" d="M480.758 379.5C480.758 376 481.758 368 483.758 356C486.306 340.711 484.258 328 480.758 315C475.258 301 469.758 296.5 461.758 297C455.358 297.4 450.758 302.167 449.258 304.5C451.091 300.833 456.358 293.6 462.758 294C470.758 294.5 477.758 299 479.258 302.5C480.758 306 480.258 291.5 476.758 284C473.958 278 461.924 274.167 456.258 273C459.924 273 467.258 273 472.758 276.5C468.358 271.3 468.258 260.333 468.758 256.5C468.924 258.167 470.458 263.4 471.258 267C472.058 270.6 472.313 271.5 474.258 275C476.758 279.5 479.258 280.5 480.758 285C480.968 285.632 483.258 277 486.258 273C488.658 269.8 495.591 266.333 498.758 265C495.591 266.667 488.958 271 487.758 275C486.258 280 482.258 286.5 483.758 294C485.258 301.5 485.258 310.5 487.758 318C490.258 325.5 495.758 311.5 497.258 307C499.258 301 496.258 296.5 489.258 292.5C496.258 293 501.458 297.7 500.258 304.5C500.081 305.5 505.659 298.049 510.758 295.5C515.246 293.256 522.956 294.235 527.743 295.182C528.328 295.254 528.839 295.36 529.258 295.5C528.797 295.398 528.289 295.29 527.743 295.182C524.832 294.825 520.087 295.335 515.758 297C509.258 299.5 503.758 309.5 500.258 315C496.758 320.5 502.758 311.5 509.258 312C514.458 312.4 519.258 316.167 519.258 318C518.424 316.333 510.958 313.7 507.758 314.5C503.758 315.5 490.758 325.5 491.258 333C491.758 340.5 492.758 359 495.758 367C498.158 373.4 499.258 377.5 499.258 380.5C497.258 382 492.258 382.5 489.758 382.5C485.758 382.5 482.758 381 480.758 379.5Z" fill="url(#paint23_linear_236_2)"/>
</g>
<g id="Tree_4">
<path id="Shadow_5" fill-rule="evenodd" clip-rule="evenodd" d="M665.101 380.863C669.013 378.705 671.258 376.188 671.258 373.5C671.258 365.492 651.334 359 626.758 359C602.181 359 582.258 365.492 582.258 373.5C582.258 381.124 600.317 387.374 623.258 387.956C623.258 387.971 623.258 387.985 623.258 388C623.258 392.971 634.898 397 649.258 397C663.617 397 675.258 392.971 675.258 388C675.258 385.094 671.278 382.509 665.101 380.863Z" fill="#74A741"/>
<g id="Leaves_4">
<path id="Union_14" fill-rule="evenodd" clip-rule="evenodd" d="M647.258 255C647.258 257.027 646.939 258.998 646.338 260.886C656.292 258.68 665.721 260.681 671.466 267.207C681.292 278.368 676.628 298.534 661.049 312.251C648.77 323.061 633.376 326.639 622.594 322.206C613.281 326.294 600.318 325.758 588.089 319.841C569.405 310.8 559.508 292.62 565.985 279.235C569.344 272.292 576.45 268.003 585.119 266.745C582.654 263.243 581.258 259.245 581.258 255C581.258 241.193 596.032 230 614.258 230C632.483 230 647.258 241.193 647.258 255Z" fill="url(#paint24_linear_236_2)"/>
<path id="Union_15" fill-rule="evenodd" clip-rule="evenodd" d="M647.215 252.668C649.378 259.373 648.201 266.466 644.544 272.554C659.109 267.914 671.975 271.664 674.898 282.286C678.284 294.595 667.037 311.47 649.776 319.978C639.433 325.075 629.279 326.013 622.071 323.297C614.788 327.258 604.224 326.62 594.169 320.724C579.306 312.009 571.186 295.107 576.031 282.972C578.393 277.056 583.401 273.365 589.636 272.146C589.538 271.877 589.445 271.605 589.356 271.331C584.962 257.707 594.351 242.485 610.328 237.331C626.306 232.178 642.82 239.044 647.215 252.668Z" fill="url(#paint25_linear_236_2)"/>
</g>
<path id="Trunk_4" d="M616.758 369.5C616.758 366 617.758 358 619.758 346C622.306 330.711 620.258 318 616.758 305C611.258 291 605.758 286.5 597.758 287C591.358 287.4 586.758 292.167 585.258 294.5C587.091 290.833 592.358 283.6 598.758 284C606.758 284.5 613.758 289 615.258 292.5C616.758 296 616.258 281.5 612.758 274C609.958 268 597.924 264.167 592.258 263C595.924 263 603.258 263 608.758 266.5C604.358 261.3 604.258 250.333 604.758 246.5C604.924 248.167 606.458 253.4 607.258 257C608.058 260.6 608.313 261.5 610.258 265C612.758 269.5 615.258 270.5 616.758 275C616.968 275.632 619.258 267 622.258 263C624.658 259.8 631.591 256.333 634.758 255C631.591 256.667 624.958 261 623.758 265C622.258 270 618.258 276.5 619.758 284C621.258 291.5 621.258 300.5 623.758 308C626.258 315.5 631.758 301.5 633.258 297C635.258 291 632.258 286.5 625.258 282.5C632.258 283 637.458 287.7 636.258 294.5C636.081 295.5 641.659 288.049 646.758 285.5C651.246 283.256 658.956 284.235 663.743 285.182C664.328 285.254 664.839 285.36 665.258 285.5C664.797 285.398 664.289 285.29 663.743 285.182C660.832 284.825 656.087 285.335 651.758 287C645.258 289.5 639.758 299.5 636.258 305C632.758 310.5 638.758 301.5 645.258 302C650.458 302.4 655.258 306.167 655.258 308C654.424 306.333 646.958 303.7 643.758 304.5C639.758 305.5 626.758 315.5 627.258 323C627.758 330.5 628.758 349 631.758 357C634.158 363.4 635.258 367.5 635.258 370.5C633.258 372 628.258 372.5 625.758 372.5C621.758 372.5 618.758 371 616.758 369.5Z" fill="url(#paint26_linear_236_2)"/>
</g>
<path id="Ocean Division" d="M888 570L1279 570" stroke="#4C7EB2" stroke-width="6" stroke-dasharray="10 10"/>
<text id="surface ocean" opacity="0.5" fill="#B3D1E8" xml:space="preserve" style="white-space: pre" font-family="Open Sans" font-size="34" font-weight="800" letter-spacing="0px"><tspan x="922.364" y="556.19">surface ocean</tspan></text>
<text id="plants" opacity="0.7" fill="#B3F075" xml:space="preserve" style="white-space: pre" font-family="Open Sans" font-size="34" font-weight="800" letter-spacing="0px"><tspan x="540.2" y="423.19">plants</tspan></text>
<text id="fossil fuel" opacity="0.8" fill="#D2D2D2" xml:space="preserve" style="white-space: pre" font-family="Open Sans" font-size="34" font-weight="800" letter-spacing="0px"><tspan x="209.153" y="611.19">fossil fuel</tspan></text>
<text id="atomosphere" opacity="0.6" fill="#D2EAFD" xml:space="preserve" style="white-space: pre" font-family="Open Sans" font-size="34" font-weight="800" letter-spacing="0px"><tspan x="514.011" y="128.19">atomosphere</tspan></text>
<text id="soil" opacity="0.7" fill="#7E3D16" xml:space="preserve" style="white-space: pre" font-family="Open Sans" font-size="34" font-weight="800" letter-spacing="0px"><tspan x="699.071" y="581.19">soil</tspan></text>
<text id="deep ocean" opacity="0.5" fill="#26639D" xml:space="preserve" style="white-space: pre" font-family="Open Sans" font-size="34" font-weight="800" letter-spacing="0px"><tspan x="945.191" y="606.19">deep ocean</tspan></text>
<path id="Soil to Atmosphere" opacity="0.8" d="M835 304.5C889.205 429.172 811 493 765.5 554.5C820.5 469 853.921 396.742 809.5 308.5C780.554 251 749.5 228.5 715.5 189.5L684.168 205.901L711.648 139.024L773.728 169.398L743.5 178C773.728 214 809.5 245.85 835 304.5Z" fill="url(#paint27_linear_236_2)"/>
<path id="Atmosphere to Plants" opacity="0.8" d="M433.465 215.466L457.5 204C450.5 160.5 464.5 139 508 121.5C485.5 145 483.5 161 493.5 187L519.359 171.017L498.036 240.105L433.465 215.466Z" fill="url(#paint28_linear_236_2)"/>
<path id="Plants to Atmosphere" opacity="0.8" d="M685.108 182.862L658.496 183.845C645.5 204.5 646.876 213 638.5 231.5C629.876 206.5 624.5 197 618.706 185.156L588.627 189.56L635.624 134.615L685.108 182.862Z" fill="url(#paint29_linear_236_2)"/>
<g id="Atmosphere to Ocean">
<path id="Intersect" fill-rule="evenodd" clip-rule="evenodd" d="M1236.17 400L1198.45 400C1201.92 434.827 1196.15 463.981 1191 485L1161.5 473L1197 536L1255.5 504.5L1228.5 496.5C1234.16 475.523 1240.71 440.994 1236.17 400Z" fill="url(#paint30_linear_236_2)"/>
<path id="Subtract" opacity="0.8" fill-rule="evenodd" clip-rule="evenodd" d="M812.5 116C874.5 109.5 1003.01 118.716 1122 211.5C1202.39 274.19 1229.89 343.282 1236.17 400H1198.45C1193.49 350.325 1169.72 289.109 1098.5 223.5C1016 147.5 919 120.944 812.5 116Z" fill="url(#paint31_linear_236_2)"/>
</g>
<g id="Ocean to Atmosphere">
<path id="Intersect_2" fill-rule="evenodd" clip-rule="evenodd" d="M1181.32 400C1184.49 422.429 1185.13 445.766 1183.5 470C1179.76 443.407 1175.18 420.287 1169.79 400L1181.32 400Z" fill="white" fill-opacity="0.08"/>
<path id="Subtract_2" opacity="0.8" fill-rule="evenodd" clip-rule="evenodd" d="M1181.32 400C1169.88 319.235 1125.5 250.242 1035.5 193.5C935.62 130.532 858 122.042 802.08 122.042L808.5 94L754 136.5L802.08 190.5L802.08 160C854.624 160 927.791 164.228 1019.5 221C1022.1 222.61 1024.67 224.198 1027.22 225.771C1093.86 266.901 1142.36 296.831 1169.79 400H1181.32Z" fill="url(#paint32_linear_236_2)"/>
</g>
<g id="Fossil Fuel Frame" filter="url(#filter0_d_236_2)">
<rect x="220" y="635" width="150" height="50" rx="15" fill="white"/>
</g>
<g id="Deep Ocean Frame" filter="url(#filter1_d_236_2)">
<rect x="972" y="639" width="150" height="50" rx="15" fill="white"/>
</g>
<g id="Surface Ocean Frame" filter="url(#filter2_d_236_2)">
<rect x="972" y="454" width="150" height="50" rx="15" fill="white"/>
</g>
<g id="Atmosphere Frame" filter="url(#filter3_d_236_2)">
<rect x="559" y="32" width="150" height="50" rx="15" fill="white"/>
</g>
<g id="Plants Frame" filter="url(#filter4_d_236_2)">
<rect x="522" y="446" width="150" height="50" rx="15" fill="white"/>
</g>
<g id="Soil Frame" filter="url(#filter5_d_236_2)">
<rect x="655" y="598" width="150" height="50" rx="15" fill="white"/>
</g>
<text id="Fossil Fuel {{textAlign:middle}}" fill="black" xml:space="preserve" style="white-space: pre" font-family="Open Sans" font-size="24" font-weight="bold" letter-spacing="0px"><tspan x="229.164" y="668.811">{{cffuel|c}}</tspan></text>
<text id="Atmo {{textAlign:middle}}" fill="black" xml:space="preserve" style="white-space: pre" font-family="Open Sans" font-size="24" font-weight="bold" letter-spacing="0px"><tspan x="563.414" y="65.8105">{{catmo|c}}</tspan></text>
<text id="Ocean Surf {{textAlign:middle}}" fill="black" xml:space="preserve" style="white-space: pre" font-family="Open Sans" font-size="24" font-weight="bold" letter-spacing="0px"><tspan x="949.312" y="487.811">{{coceansurf|c}}</tspan></text>
<text id="Ocean Deep {{textAlign:middle}}" fill="black" xml:space="preserve" style="white-space: pre" font-family="Open Sans" font-size="24" font-weight="bold" letter-spacing="0px"><tspan x="944.398" y="672.811">{{coceandeep|c}}</tspan></text>
<text id="Soil {{textAlign:middle}}" fill="black" xml:space="preserve" style="white-space: pre" font-family="Open Sans" font-size="24" font-weight="bold" letter-spacing="0px"><tspan x="671.371" y="630.811">{{csoil|c}}</tspan></text>
<text id="Plants {{textAlign:middle}}" fill="black" xml:space="preserve" style="white-space: pre" font-family="Open Sans" font-size="24" font-weight="bold" letter-spacing="0px"><tspan x="522.02" y="478.811">{{cplants|c}}</tspan></text>
</g>
<defs>
<filter id="filter0_d_236_2" x="206" y="626" width="178" height="78" filterUnits="userSpaceOnUse" color-interpolation-filters="sRGB">
<feFlood flood-opacity="0" result="BackgroundImageFix"/>
<feColorMatrix in="SourceAlpha" type="matrix" values="0 0 0 0 0 0 0 0 0 0 0 0 0 0 0 0 0 0 127 0" result="hardAlpha"/>
<feMorphology radius="4" operator="dilate" in="SourceAlpha" result="effect1_dropShadow_236_2"/>
<feOffset dy="5"/>
<feGaussianBlur stdDeviation="5"/>
<feColorMatrix type="matrix" values="0 0 0 0 0 0 0 0 0 0 0 0 0 0 0 0 0 0 0.35 0"/>
<feBlend mode="normal" in2="BackgroundImageFix" result="effect1_dropShadow_236_2"/>
<feBlend mode="normal" in="SourceGraphic" in2="effect1_dropShadow_236_2" result="shape"/>
</filter>
<filter id="filter1_d_236_2" x="958" y="630" width="178" height="78" filterUnits="userSpaceOnUse" color-interpolation-filters="sRGB">
<feFlood flood-opacity="0" result="BackgroundImageFix"/>
<feColorMatrix in="SourceAlpha" type="matrix" values="0 0 0 0 0 0 0 0 0 0 0 0 0 0 0 0 0 0 127 0" result="hardAlpha"/>
<feMorphology radius="4" operator="dilate" in="SourceAlpha" result="effect1_dropShadow_236_2"/>
<feOffset dy="5"/>
<feGaussianBlur stdDeviation="5"/>
<feColorMatrix type="matrix" values="0 0 0 0 0 0 0 0 0 0 0 0 0 0 0 0 0 0 0.35 0"/>
<feBlend mode="normal" in2="BackgroundImageFix" result="effect1_dropShadow_236_2"/>
<feBlend mode="normal" in="SourceGraphic" in2="effect1_dropShadow_236_2" result="shape"/>
</filter>
<filter id="filter2_d_236_2" x="958" y="445" width="178" height="78" filterUnits="userSpaceOnUse" color-interpolation-filters="sRGB">
<feFlood flood-opacity="0" result="BackgroundImageFix"/>
<feColorMatrix in="SourceAlpha" type="matrix" values="0 0 0 0 0 0 0 0 0 0 0 0 0 0 0 0 0 0 127 0" result="hardAlpha"/>
<feMorphology radius="4" operator="dilate" in="SourceAlpha" result="effect1_dropShadow_236_2"/>
<feOffset dy="5"/>
<feGaussianBlur stdDeviation="5"/>
<feColorMatrix type="matrix" values="0 0 0 0 0 0 0 0 0 0 0 0 0 0 0 0 0 0 0.35 0"/>
<feBlend mode="normal" in2="BackgroundImageFix" result="effect1_dropShadow_236_2"/>
<feBlend mode="normal" in="SourceGraphic" in2="effect1_dropShadow_236_2" result="shape"/>
</filter>
<filter id="filter3_d_236_2" x="545" y="23" width="178" height="78" filterUnits="userSpaceOnUse" color-interpolation-filters="sRGB">
<feFlood flood-opacity="0" result="BackgroundImageFix"/>
<feColorMatrix in="SourceAlpha" type="matrix" values="0 0 0 0 0 0 0 0 0 0 0 0 0 0 0 0 0 0 127 0" result="hardAlpha"/>
<feMorphology radius="4" operator="dilate" in="SourceAlpha" result="effect1_dropShadow_236_2"/>
<feOffset dy="5"/>
<feGaussianBlur stdDeviation="5"/>
<feColorMatrix type="matrix" values="0 0 0 0 0 0 0 0 0 0 0 0 0 0 0 0 0 0 0.35 0"/>
<feBlend mode="normal" in2="BackgroundImageFix" result="effect1_dropShadow_236_2"/>
<feBlend mode="normal" in="SourceGraphic" in2="effect1_dropShadow_236_2" result="shape"/>
</filter>
<filter id="filter4_d_236_2" x="508" y="437" width="178" height="78" filterUnits="userSpaceOnUse" color-interpolation-filters="sRGB">
<feFlood flood-opacity="0" result="BackgroundImageFix"/>
<feColorMatrix in="SourceAlpha" type="matrix" values="0 0 0 0 0 0 0 0 0 0 0 0 0 0 0 0 0 0 127 0" result="hardAlpha"/>
<feMorphology radius="4" operator="dilate" in="SourceAlpha" result="effect1_dropShadow_236_2"/>
<feOffset dy="5"/>
<feGaussianBlur stdDeviation="5"/>
<feColorMatrix type="matrix" values="0 0 0 0 0 0 0 0 0 0 0 0 0 0 0 0 0 0 0.35 0"/>
<feBlend mode="normal" in2="BackgroundImageFix" result="effect1_dropShadow_236_2"/>
<feBlend mode="normal" in="SourceGraphic" in2="effect1_dropShadow_236_2" result="shape"/>
</filter>
<filter id="filter5_d_236_2" x="641" y="589" width="178" height="78" filterUnits="userSpaceOnUse" color-interpolation-filters="sRGB">
<feFlood flood-opacity="0" result="BackgroundImageFix"/>
<feColorMatrix in="SourceAlpha" type="matrix" values="0 0 0 0 0 0 0 0 0 0 0 0 0 0 0 0 0 0 127 0" result="hardAlpha"/>
<feMorphology radius="4" operator="dilate" in="SourceAlpha" result="effect1_dropShadow_236_2"/>
<feOffset dy="5"/>
<feGaussianBlur stdDeviation="5"/>
<feColorMatrix type="matrix" values="0 0 0 0 0 0 0 0 0 0 0 0 0 0 0 0 0 0 0.35 0"/>
<feBlend mode="normal" in2="BackgroundImageFix" result="effect1_dropShadow_236_2"/>
<feBlend mode="normal" in="SourceGraphic" in2="effect1_dropShadow_236_2" result="shape"/>
</filter>
<linearGradient id="paint0_linear_236_2" x1="640" y1="0" x2="640" y2="720" gradientUnits="userSpaceOnUse">
<stop stop-color="#3E6EA0"/>
<stop offset="1" stop-color="#9BC9FA"/>
</linearGradient>
<linearGradient id="paint1_linear_236_2" x1="640" y1="282" x2="640" y2="391" gradientUnits="userSpaceOnUse">
<stop stop-color="white" stop-opacity="0"/>
<stop offset="1" stop-color="white" stop-opacity="0.5"/>
</linearGradient>
<linearGradient id="paint2_linear_236_2" x1="666.855" y1="42.6428" x2="666.855" y2="306.354" gradientUnits="userSpaceOnUse">
<stop stop-color="#A4A2A2"/>
<stop offset="1" stop-color="#7A7A7A"/>
</linearGradient>
<linearGradient id="paint3_linear_236_2" x1="635.3" y1="-76.2936" x2="635.3" y2="168.479" gradientUnits="userSpaceOnUse">
<stop stop-color="#DDDDDD"/>
<stop offset="1" stop-color="#ABABAB"/>
</linearGradient>
<linearGradient id="paint4_linear_236_2" x1="994.25" y1="348.5" x2="994.25" y2="908" gradientUnits="userSpaceOnUse">
<stop stop-color="#D3ECFF"/>
<stop offset="0.203125" stop-color="#BAD3E4"/>
</linearGradient>
<linearGradient id="paint5_linear_236_2" x1="989.5" y1="467" x2="989.5" y2="721" gradientUnits="userSpaceOnUse">
<stop stop-color="#9DBBD8"/>
<stop offset="1" stop-color="#336DA5"/>
</linearGradient>
<linearGradient id="paint6_linear_236_2" x1="312" y1="465" x2="312" y2="701" gradientUnits="userSpaceOnUse">
<stop stop-color="#565050"/>
<stop offset="1" stop-color="#AEAEAE"/>
</linearGradient>
<linearGradient id="paint7_linear_236_2" x1="306.5" y1="501" x2="306.5" y2="685" gradientUnits="userSpaceOnUse">
<stop stop-color="#353535"/>
<stop offset="1" stop-color="#6F6F6F"/>
</linearGradient>
<linearGradient id="paint8_linear_236_2" x1="639.75" y1="440.5" x2="639.75" y2="720.5" gradientUnits="userSpaceOnUse">
<stop stop-color="#C47F56"/>
<stop offset="1" stop-color="#AE6539"/>
</linearGradient>
<linearGradient id="paint9_linear_236_2" x1="637.5" y1="446.028" x2="637.5" y2="763.791" gradientUnits="userSpaceOnUse">
<stop stop-color="#A95A2C"/>
<stop offset="1" stop-color="#D3875A"/>
</linearGradient>
<linearGradient id="paint10_linear_236_2" x1="311.5" y1="521" x2="311.5" y2="677" gradientUnits="userSpaceOnUse">
<stop stop-color="#B26435"/>
<stop offset="1" stop-color="#C97C4E"/>
</linearGradient>
<linearGradient id="paint11_linear_236_2" x1="399.75" y1="329.5" x2="399.75" y2="440.5" gradientUnits="userSpaceOnUse">
<stop stop-color="#8ECF4E"/>
<stop offset="1" stop-color="#75AB3F"/>
</linearGradient>
<linearGradient id="paint12_linear_236_2" x1="129" y1="251" x2="164" y2="251" gradientUnits="userSpaceOnUse">
<stop stop-color="#D8D8D8"/>
<stop offset="1" stop-color="#B5B5B5"/>
</linearGradient>
<linearGradient id="paint13_linear_236_2" x1="129" y1="182.5" x2="164" y2="182.5" gradientUnits="userSpaceOnUse">
<stop stop-color="#D8D8D8"/>
<stop offset="1" stop-color="#B5B5B5"/>
</linearGradient>
<linearGradient id="paint14_linear_236_2" x1="193" y1="196.5" x2="228" y2="196.5" gradientUnits="userSpaceOnUse">
<stop stop-color="#D8D8D8"/>
<stop offset="1" stop-color="#B5B5B5"/>
</linearGradient>
<linearGradient id="paint15_linear_236_2" x1="565.049" y1="205" x2="565.049" y2="299.854" gradientUnits="userSpaceOnUse">
<stop stop-color="#ABE374"/>
<stop offset="1" stop-color="#8ECF4E"/>
</linearGradient>
<linearGradient id="paint16_linear_236_2" x1="569.807" y1="210.618" x2="569.807" y2="300.806" gradientUnits="userSpaceOnUse">
<stop stop-color="#88BF50"/>
<stop offset="1" stop-color="#7AB044"/>
</linearGradient>
<linearGradient id="paint17_linear_236_2" x1="514" y1="243.5" x2="617.5" y2="331" gradientUnits="userSpaceOnUse">
<stop stop-color="#DB8C5D"/>
<stop offset="1" stop-color="#9C5022"/>
</linearGradient>
<linearGradient id="paint18_linear_236_2" x1="677.306" y1="224" x2="677.306" y2="318.854" gradientUnits="userSpaceOnUse">
<stop stop-color="#ABE374"/>
<stop offset="1" stop-color="#8ECF4E"/>
</linearGradient>
<linearGradient id="paint19_linear_236_2" x1="682.064" y1="229.618" x2="682.064" y2="319.806" gradientUnits="userSpaceOnUse">
<stop stop-color="#88BF50"/>
<stop offset="1" stop-color="#7AB044"/>
</linearGradient>
<linearGradient id="paint20_linear_236_2" x1="626.258" y1="262.5" x2="729.758" y2="350" gradientUnits="userSpaceOnUse">
<stop stop-color="#DB8C5D"/>
<stop offset="1" stop-color="#9C5022"/>
</linearGradient>
<linearGradient id="paint21_linear_236_2" x1="484.306" y1="240" x2="484.306" y2="334.854" gradientUnits="userSpaceOnUse">
<stop stop-color="#ABE374"/>
<stop offset="1" stop-color="#8ECF4E"/>
</linearGradient>
<linearGradient id="paint22_linear_236_2" x1="489.064" y1="245.618" x2="489.064" y2="335.806" gradientUnits="userSpaceOnUse">
<stop stop-color="#88BF50"/>
<stop offset="1" stop-color="#7AB044"/>
</linearGradient>
<linearGradient id="paint23_linear_236_2" x1="433.258" y1="278.5" x2="536.758" y2="366" gradientUnits="userSpaceOnUse">
<stop stop-color="#DB8C5D"/>
<stop offset="1" stop-color="#9C5022"/>
</linearGradient>
<linearGradient id="paint24_linear_236_2" x1="620.306" y1="230" x2="620.306" y2="324.854" gradientUnits="userSpaceOnUse">
<stop stop-color="#ABE374"/>
<stop offset="1" stop-color="#8ECF4E"/>
</linearGradient>
<linearGradient id="paint25_linear_236_2" x1="625.064" y1="235.618" x2="625.064" y2="325.806" gradientUnits="userSpaceOnUse">
<stop stop-color="#88BF50"/>
<stop offset="1" stop-color="#7AB044"/>
</linearGradient>
<linearGradient id="paint26_linear_236_2" x1="569.258" y1="268.5" x2="672.758" y2="356" gradientUnits="userSpaceOnUse">
<stop stop-color="#DB8C5D"/>
<stop offset="1" stop-color="#9C5022"/>
</linearGradient>
<linearGradient id="paint27_linear_236_2" x1="769" y1="552" x2="713" y2="138" gradientUnits="userSpaceOnUse">
<stop stop-color="white" stop-opacity="0.19"/>
<stop offset="1" stop-color="white"/>
</linearGradient>
<linearGradient id="paint28_linear_236_2" x1="510" y1="121" x2="498" y2="238" gradientUnits="userSpaceOnUse">
<stop stop-color="white" stop-opacity="0.2"/>
<stop offset="1" stop-color="white"/>
</linearGradient>
<linearGradient id="paint29_linear_236_2" x1="638" y1="236" x2="638" y2="137.5" gradientUnits="userSpaceOnUse">
<stop stop-color="white" stop-opacity="0.51"/>
<stop offset="1" stop-color="white"/>
</linearGradient>
<linearGradient id="paint30_linear_236_2" x1="1208.5" y1="400" x2="1208.5" y2="536" gradientUnits="userSpaceOnUse">
<stop stop-color="white" stop-opacity="0.21"/>
<stop offset="1" stop-color="white" stop-opacity="0.35"/>
</linearGradient>
<linearGradient id="paint31_linear_236_2" x1="813" y1="114" x2="1199" y2="536" gradientUnits="userSpaceOnUse">
<stop stop-color="white" stop-opacity="0.2"/>
<stop offset="1" stop-color="white" stop-opacity="0.6"/>
</linearGradient>
<linearGradient id="paint32_linear_236_2" x1="1180.5" y1="464" x2="757.556" y2="130.278" gradientUnits="userSpaceOnUse">
<stop stop-color="white" stop-opacity="0.2"/>
<stop offset="1" stop-color="white"/>
</linearGradient>
<clipPath id="clip0_236_2">
<rect width="1280" height="720" fill="white"/>
</clipPath>
</defs>
</svg>
