<svg width="320" height="352" viewBox="0 0 320 352" fill="none" xmlns="http://www.w3.org/2000/svg">
<g id="iso-pylon">
<g id="Frame 4">
<mask id="mask0_837_3" style="mask-type:alpha" maskUnits="userSpaceOnUse" x="121" y="25" width="78" height="203">
<rect id="Rectangle 1" x="121" y="25" width="78" height="203" fill="#C4C4C4"/>
</mask>
<g mask="url(#mask0_837_3)">
<g id="Back Contrast {{positionY:#0,guide:height,origin:0.5;1.0}}">
<mask id="path-2-outside-1_837_3" maskUnits="userSpaceOnUse" x="125" y="189" width="70" height="198" fill="black">
<rect fill="white" x="125" y="189" width="70" height="198"/>
<path fill-rule="evenodd" clip-rule="evenodd" d="M160 192L128 208V368L160 384L192 368V208L160 192Z"/>
</mask>
<path d="M128 208L126.658 205.317C125.642 205.825 125 206.864 125 208H128ZM160 192L161.342 189.317C160.497 188.894 159.503 188.894 158.658 189.317L160 192ZM128 368H125C125 369.136 125.642 370.175 126.658 370.683L128 368ZM160 384L158.658 386.683C159.503 387.106 160.497 387.106 161.342 386.683L160 384ZM192 368L193.342 370.683C194.358 370.175 195 369.136 195 368H192ZM192 208H195C195 206.864 194.358 205.825 193.342 205.317L192 208ZM129.342 210.683L161.342 194.683L158.658 189.317L126.658 205.317L129.342 210.683ZM125 208V368H131V208H125ZM126.658 370.683L158.658 386.683L161.342 381.317L129.342 365.317L126.658 370.683ZM190.658 365.317L158.658 381.317L161.342 386.683L193.342 370.683L190.658 365.317ZM189 208V368H195V208H189ZM158.658 194.683L190.658 210.683L193.342 205.317L161.342 189.317L158.658 194.683Z" fill="white" mask="url(#path-2-outside-1_837_3)"/>
</g>
</g>
</g>
<g id="Base">
<g id="Bottom">
<g id="Union">
<mask id="path-4-outside-2_837_3" maskUnits="userSpaceOnUse" x="29" y="157" width="262" height="166" fill="black">
<rect fill="white" x="29" y="157" width="262" height="166"/>
<path fill-rule="evenodd" clip-rule="evenodd" d="M160 160L32 224V256L160 320L288 256V224L160 160Z"/>
</mask>
<path d="M32 224L30.6584 221.317C29.642 221.825 29 222.864 29 224H32ZM160 160L161.342 157.317C160.497 156.894 159.503 156.894 158.658 157.317L160 160ZM32 256H29C29 257.136 29.642 258.175 30.6584 258.683L32 256ZM160 320L158.658 322.683C159.503 323.106 160.497 323.106 161.342 322.683L160 320ZM288 256L289.342 258.683C290.358 258.175 291 257.136 291 256H288ZM288 224H291C291 222.864 290.358 221.825 289.342 221.317L288 224ZM33.3416 226.683L161.342 162.683L158.658 157.317L30.6584 221.317L33.3416 226.683ZM29 224V256H35V224H29ZM30.6584 258.683L158.658 322.683L161.342 317.317L33.3416 253.317L30.6584 258.683ZM286.658 253.317L158.658 317.317L161.342 322.683L289.342 258.683L286.658 253.317ZM285 224V256H291V224H285ZM158.658 162.683L286.658 226.683L289.342 221.317L161.342 157.317L158.658 162.683Z" fill="white" mask="url(#path-4-outside-2_837_3)"/>
</g>
<path id="Vector 1" d="M160 160L32 224L160 288L288 224L160 160Z" fill="#C4C4C4" stroke="black" stroke-linejoin="round"/>
<path id="Vector 3" d="M288 224L160 288V320L288 256V224Z" fill="#8B8B8B" stroke="black" stroke-linejoin="round"/>
<path id="Vector 2" d="M32 224V256L160 320V288L32 224Z" fill="#A9A9A9" stroke="black" stroke-linejoin="round"/>
<text id="{{#0}}" transform="matrix(0.896873 -0.442289 0 1 170 292.672)" fill="black" xml:space="preserve" style="white-space: pre" font-family="Roboto" font-size="12" letter-spacing="0em"><tspan x="0" y="11.1016">{{#0}}</tspan></text>
</g>
<g id="Marker {{position:#0,guide:basetrack}}">
<path id="Vector 14" d="M144 267L160 259L176 267L160 275L144 267Z" fill="#238A92" stroke="black" stroke-linejoin="round"/>
<path id="Vector 17" d="M160 275L176 267V272L160 280V275Z" fill="#144F54" stroke="black" stroke-linejoin="round"/>
<path id="Vector 16" d="M144 272V267L160 275V280L144 272Z" fill="#1B6C73" stroke="black" stroke-linejoin="round"/>
<path id="Vector 15" d="M152 267L160 263L168 267L160 271L152 267Z" fill="white" stroke="black" stroke-linejoin="round"/>
</g>
<g id="Top">
<path id="Vector 4" d="M160 176L96 208L160 240L224 208L160 176Z" fill="#C4C4C4" stroke="black" stroke-linejoin="round"/>
<path id="Vector 5" d="M224 208L160 240V256L224 224V208Z" fill="#8B8B8B" stroke="black" stroke-linejoin="round"/>
<path id="Vector 6" d="M96 208V224L160 256V240L96 208Z" fill="#A9A9A9" stroke="black" stroke-linejoin="round"/>
</g>
</g>
<g id="Pylon Mask">
<mask id="mask1_837_3" style="mask-type:alpha" maskUnits="userSpaceOnUse" x="127" y="31" width="66" height="194">
<g id="Union_2">
<path fill-rule="evenodd" clip-rule="evenodd" d="M160 32L128 48V208L160 224L192 208V48L160 32Z" fill="#63A1B5"/>
<path d="M128 48L127.776 47.5528C127.607 47.6375 127.5 47.8106 127.5 48H128ZM160 32L160.224 31.5528C160.083 31.4824 159.917 31.4824 159.776 31.5528L160 32ZM128 208H127.5C127.5 208.189 127.607 208.363 127.776 208.447L128 208ZM160 224L159.776 224.447C159.917 224.518 160.083 224.518 160.224 224.447L160 224ZM192 208L192.224 208.447C192.393 208.363 192.5 208.189 192.5 208H192ZM192 48H192.5C192.5 47.8106 192.393 47.6375 192.224 47.5528L192 48ZM128.224 48.4472L160.224 32.4472L159.776 31.5528L127.776 47.5528L128.224 48.4472ZM127.5 48V208H128.5V48H127.5ZM127.776 208.447L159.776 224.447L160.224 223.553L128.224 207.553L127.776 208.447ZM191.776 207.553L159.776 223.553L160.224 224.447L192.224 208.447L191.776 207.553ZM191.5 48V208H192.5V48H191.5ZM159.776 32.4472L191.776 48.4472L192.224 47.5528L160.224 31.5528L159.776 32.4472Z" fill="black"/>
</g>
</mask>
<g mask="url(#mask1_837_3)">
<g id="Pylon {{positionY:#0,guide:height,origin:0.5;1.0}}">
<path id="Vector 7" d="M160 192L128 208L160 224L192 208L160 192Z" fill="#238A92" stroke="black" stroke-linejoin="round"/>
<path id="Vector 8" d="M192 208L160 224V384L192 368V208Z" fill="#144F54" stroke="black" stroke-linejoin="round"/>
<path id="Vector 9" d="M128 208V368L160 384V224L128 208Z" fill="#1B6C73" stroke="black" stroke-linejoin="round"/>
<g id="Top Slot">
<path id="Vector 19" d="M150 211L160 206L170 211L160 216L150 211Z" stroke="black" stroke-linejoin="round"/>
<path id="Vector 21" d="M160 200V206L170 211L176 208L160 200Z" fill="#1B6C73" stroke="black" stroke-linejoin="round"/>
<path id="Vector 20" d="M150 211L160 206V200L144 208L150 211Z" fill="#144F54" stroke="black" stroke-linejoin="round"/>
</g>
</g>
</g>
</g>
<path id="{{height}}" opacity="0.01" d="M160 208L160 48" stroke="black" stroke-width="0.01"/>
<path id="{{basetrack}}" opacity="0.01" d="M159.9 272L64 224L160 175.5L256 224L160.1 272" stroke="black" stroke-width="0.01"/>
<path id="Vector 13" d="M192 208L160 224L128 208" stroke="black"/>
</g>
</svg>
