<svg width="579" height="290" viewBox="0 0 579 290" fill="none" xmlns="http://www.w3.org/2000/svg">
<rect width="579" height="290" fill="#F2F2F2"/>
<g id="tire-mileage" clip-path="url(#clip0)">
<rect width="579" height="290" fill="white"/>
<g id="Guide Layers">
<path id="{{Guide}}" opacity="0.1" d="M124 211C124 128.7 191.7 61 274 61C356.3 61 424 128.7 424 211" stroke="#FF0000" stroke-opacity="0.01" stroke-miterlimit="10"/>
</g>
<g id="Road Base" opacity="0.3">
<path id="Vector" d="M404.6 80.4C369.5 45.3 323.1 26 274 26C224.9 26 178.5 45.3 143.4 80.4C108.3 115.5 89 161.9 89 211H122C122 209 122 206.9 122.1 204.9L126.1 205.1C126 207 126 209 126 211H159C159 180.6 171 151.7 192.9 129.9C214.7 108 243.6 96 274 96C304.4 96 333.3 108 355.1 129.9C377 151.7 389 180.6 389 211H422C422 209 422 207 421.9 205.1L425.9 204.9C426 206.9 426 209 426 211H459C459 161.9 439.7 115.5 404.6 80.4ZM126.3 201.1L122.3 200.8C122.6 196.7 123 192.6 123.6 188.5L127.6 189.1C127 193.1 126.6 197.1 126.3 201.1ZM128.3 185.2L124.4 184.5C125.1 180.5 126 176.4 127.1 172.5L131 173.5C129.9 177.3 129 181.3 128.3 185.2ZM132 169.6L128.2 168.5C129.4 164.6 130.7 160.6 132.2 156.8L135.9 158.2C134.4 162 133.1 165.8 132 169.6ZM137.3 154.5L133.6 153C135.2 149.2 136.9 145.5 138.8 141.8L142.4 143.6C140.6 147.2 138.9 150.8 137.3 154.5ZM144.3 140.1L140.8 138.2C142.8 134.6 144.9 131.1 147.2 127.6L150.5 129.8C148.3 133.1 146.2 136.6 144.3 140.1ZM152.8 126.5L149.5 124.2C151.8 120.9 154.4 117.6 157 114.4L160.1 117C157.5 120 155.1 123.2 152.8 126.5ZM162.7 113.9L159.7 111.3C162.4 108.2 165.2 105.2 168.2 102.3L171 105.2C168.1 108 165.3 110.9 162.7 113.9ZM173.9 102.4L171.2 99.5C174.2 96.7 177.4 94 180.6 91.5L183.1 94.6C179.9 97.1 176.8 99.7 173.9 102.4ZM186.2 92.2L183.8 89C187.1 86.6 190.5 84.2 194 82L196.1 85.4C192.7 87.5 189.4 89.8 186.2 92.2ZM199.5 83.3L197.5 79.9C201 77.8 204.7 75.9 208.4 74.1L210.1 77.7C206.5 79.4 203 81.3 199.5 83.3ZM213.7 76L212.1 72.4C215.8 70.7 219.7 69.2 223.5 67.8L224.8 71.6C221.1 72.8 217.4 74.3 213.7 76ZM228.6 70.2L227.4 66.4C231.3 65.1 235.3 64 239.3 63.1L240.2 67C236.3 67.9 232.4 69 228.6 70.2ZM244.1 66.1L243.3 62.2C247.3 61.4 251.4 60.7 255.5 60.2L256 64.2C252 64.6 248 65.3 244.1 66.1ZM259.9 63.7L259.5 59.7C263.6 59.3 267.7 59.1 271.8 59L271.9 63C267.9 63.1 263.9 63.3 259.9 63.7ZM287.9 63.7C283.9 63.3 279.9 63.1 275.9 63.1L276 59.1C280.1 59.2 284.2 59.4 288.3 59.8L287.9 63.7ZM303.8 66C299.9 65.2 295.9 64.5 292 64L292.5 60C296.6 60.5 300.7 61.2 304.7 62L303.8 66ZM319.2 70.2C315.4 69 311.5 67.9 307.6 67L308.5 63.1C312.5 64 316.5 65.2 320.4 66.4L319.2 70.2ZM334.2 75.9C330.6 74.3 326.8 72.7 323.1 71.4L324.4 67.6C328.3 69 332.1 70.5 335.9 72.2L334.2 75.9ZM348.4 83.3C345 81.3 341.4 79.4 337.8 77.6L339.5 74C343.2 75.8 346.8 77.7 350.4 79.8L348.4 83.3ZM361.8 92.2C358.6 89.8 355.3 87.5 351.9 85.4L354 82C357.5 84.2 360.9 86.5 364.2 89L361.8 92.2ZM374.1 102.4C371.2 99.7 368.1 97.1 365 94.6L367.5 91.5C370.7 94 373.9 96.7 376.9 99.5L374.1 102.4ZM377 105.1L379.8 102.2C382.7 105.1 385.6 108.1 388.3 111.1L385.3 113.7C382.6 110.9 379.9 107.9 377 105.1ZM387.9 116.9L391 114.3C393.6 117.5 396.1 120.8 398.5 124.1L395.2 126.4C392.9 123.2 390.4 120 387.9 116.9ZM397.4 129.7L400.7 127.5C403 130.9 405.1 134.5 407.1 138L403.6 139.9C401.7 136.5 399.6 133.1 397.4 129.7ZM405.5 143.5L409.1 141.7C411 145.3 412.7 149.1 414.3 152.9L410.6 154.4C409.1 150.7 407.4 147.1 405.5 143.5ZM412.1 158.1L415.8 156.7C417.3 160.5 418.6 164.5 419.8 168.4L416 169.5C414.9 165.7 413.6 161.8 412.1 158.1ZM417.1 173.3L421 172.3C422.1 176.3 423 180.3 423.7 184.3L419.8 185C419 181.1 418.1 177.2 417.1 173.3ZM421.7 200.9C421.4 196.9 421 192.9 420.4 189L424.4 188.4C425 192.4 425.5 196.6 425.7 200.7L421.7 200.9Z" fill="url(#paint0_radial)"/>
<path id="Vector_2" d="M126 211H122C122 209 122 206.9 122.1 204.9L126.1 205.1C126 207 126 209 126 211ZM127.6 189.1L123.6 188.5C123 192.5 122.5 196.7 122.3 200.8L126.3 201.1C126.6 197.1 127 193.1 127.6 189.1ZM425.6 200.7C425.3 196.6 424.9 192.5 424.3 188.4L420.3 189C420.9 192.9 421.3 197 421.6 200.9L425.6 200.7ZM130.9 173.5L127 172.5C125.9 176.5 125 180.5 124.3 184.5L128.2 185.2C129 181.3 129.9 177.3 130.9 173.5ZM423.6 184.3C422.9 180.3 422 176.2 420.9 172.3L417 173.3C418 177.2 418.9 181.1 419.6 185L423.6 184.3ZM135.8 158.2L132.1 156.8C130.6 160.6 129.3 164.6 128.1 168.5L131.9 169.6C133.1 165.8 134.4 162 135.8 158.2ZM419.8 168.3C418.6 164.4 417.3 160.5 415.8 156.6L412.1 158C413.5 161.7 414.8 165.5 416 169.4L419.8 168.3ZM142.4 143.6L138.8 141.8C136.9 145.4 135.2 149.2 133.6 153L137.3 154.5C138.9 150.8 140.6 147.2 142.4 143.6ZM414.3 152.9C412.7 149.1 411 145.4 409.1 141.7L405.5 143.5C407.3 147 409 150.7 410.6 154.4L414.3 152.9ZM150.5 129.8L147.2 127.6C144.9 131 142.8 134.6 140.8 138.2L144.3 140.1C146.2 136.6 148.3 133.1 150.5 129.8ZM407.2 138.1C405.2 134.5 403.1 131 400.8 127.6L397.5 129.8C399.7 133.1 401.8 136.6 403.7 140.1L407.2 138.1ZM160.1 116.9L157 114.3C154.4 117.5 151.9 120.8 149.5 124.1L152.8 126.4C155.1 123.2 157.5 120 160.1 116.9ZM398.4 124.1C396 120.8 393.5 117.5 390.9 114.3L387.8 116.9C390.3 120 392.8 123.2 395.1 126.4L398.4 124.1ZM171 105.2L168.2 102.3C165.3 105.2 162.4 108.2 159.7 111.3L162.7 113.9C165.3 110.9 168.1 108 171 105.2ZM388.3 111.2C385.6 108.1 382.7 105.1 379.8 102.3L377 105.2C379.9 108 382.6 110.9 385.3 113.9L388.3 111.2ZM183 94.6L180.5 91.5C177.3 94 174.1 96.7 171.1 99.5L173.8 102.4C176.8 99.7 179.9 97.1 183 94.6ZM376.8 99.4C373.8 96.6 370.6 93.9 367.4 91.4L364.9 94.5C368 97 371.1 99.6 374 102.3L376.8 99.4ZM196.1 85.4L194 82C190.5 84.2 187.1 86.5 183.8 89L186.2 92.2C189.4 89.8 192.7 87.5 196.1 85.4ZM364.1 88.9C360.8 86.5 357.4 84.1 353.9 81.9L351.8 85.3C355.2 87.4 358.5 89.7 361.7 92.1L364.1 88.9ZM210.1 77.7L208.4 74.1C204.7 75.9 201.1 77.8 197.5 79.9L199.5 83.3C203 81.3 206.5 79.4 210.1 77.7ZM350.4 79.9C346.9 77.8 343.2 75.9 339.5 74.1L337.8 77.7C341.4 79.4 345 81.3 348.4 83.4L350.4 79.9ZM224.9 71.5L223.6 67.7C219.7 69.1 215.9 70.6 212.2 72.3L213.8 75.9C217.4 74.3 221.1 72.8 224.9 71.5ZM335.8 72.3C332.1 70.6 328.2 69.1 324.3 67.7L323 71.5C326.8 72.8 330.5 74.3 334.1 76L335.8 72.3ZM240.2 66.9L239.3 63C235.3 63.9 231.3 65.1 227.4 66.3L228.6 70.1C232.4 69 236.3 67.9 240.2 66.9ZM320.5 66.4C316.6 65.1 312.6 64 308.6 63.1L307.7 67C311.6 67.9 315.5 69 319.3 70.2L320.5 66.4ZM256 64.1L255.5 60.1C251.4 60.6 247.3 61.3 243.3 62.1L244.1 66C248 65.3 252 64.6 256 64.1ZM304.6 62.1C300.6 61.3 296.5 60.6 292.4 60.1L291.9 64.1C295.9 64.6 299.8 65.2 303.7 66.1L304.6 62.1ZM271.9 63L271.8 59C267.7 59.1 263.6 59.3 259.5 59.7L259.9 63.7C263.9 63.3 267.9 63.1 271.9 63ZM288.3 59.7C284.2 59.3 280.1 59.1 276 59L275.9 63C279.9 63.1 283.9 63.3 287.9 63.6L288.3 59.7ZM425.9 204.9L421.9 205.1C422 207.1 422 209 422 211H426C426 209 426 206.9 425.9 204.9Z" fill="url(#paint1_radial)"/>
</g>
<g id="Road Reveal">
<g id="Road Fill">
<path id="Vector_3" d="M404.6 80.4C369.5 45.3 323.1 26 274 26C224.9 26 178.5 45.3 143.4 80.4C108.3 115.5 89 161.9 89 211H122C122 209 122 206.9 122.1 204.9L126.1 205.1C126 207 126 209 126 211H159C159 180.6 171 151.7 192.9 129.9C214.7 108 243.6 96 274 96C304.4 96 333.3 108 355.1 129.9C377 151.7 389 180.6 389 211H422C422 209 422 207 421.9 205.1L425.9 204.9C426 206.9 426 209 426 211H459C459 161.9 439.7 115.5 404.6 80.4ZM126.3 201.1L122.3 200.8C122.6 196.7 123 192.6 123.6 188.5L127.6 189.1C127 193.1 126.6 197.1 126.3 201.1ZM128.3 185.2L124.4 184.5C125.1 180.5 126 176.4 127.1 172.5L131 173.5C129.9 177.3 129 181.3 128.3 185.2ZM132 169.6L128.2 168.5C129.4 164.6 130.7 160.6 132.2 156.8L135.9 158.2C134.4 162 133.1 165.8 132 169.6ZM137.3 154.5L133.6 153C135.2 149.2 136.9 145.5 138.8 141.8L142.4 143.6C140.6 147.2 138.9 150.8 137.3 154.5ZM144.3 140.1L140.8 138.2C142.8 134.6 144.9 131.1 147.2 127.6L150.5 129.8C148.3 133.1 146.2 136.6 144.3 140.1ZM152.8 126.5L149.5 124.2C151.8 120.9 154.4 117.6 157 114.4L160.1 117C157.5 120 155.1 123.2 152.8 126.5ZM162.7 113.9L159.7 111.3C162.4 108.2 165.2 105.2 168.2 102.3L171 105.2C168.1 108 165.3 110.9 162.7 113.9ZM173.9 102.4L171.2 99.5C174.2 96.7 177.4 94 180.6 91.5L183.1 94.6C179.9 97.1 176.8 99.7 173.9 102.4ZM186.2 92.2L183.8 89C187.1 86.6 190.5 84.2 194 82L196.1 85.4C192.7 87.5 189.4 89.8 186.2 92.2ZM199.5 83.3L197.5 79.9C201 77.8 204.7 75.9 208.4 74.1L210.1 77.7C206.5 79.4 203 81.3 199.5 83.3ZM213.7 76L212.1 72.4C215.8 70.7 219.7 69.2 223.5 67.8L224.8 71.6C221.1 72.8 217.4 74.3 213.7 76ZM228.6 70.2L227.4 66.4C231.3 65.1 235.3 64 239.3 63.1L240.2 67C236.3 67.9 232.4 69 228.6 70.2ZM244.1 66.1L243.3 62.2C247.3 61.4 251.4 60.7 255.5 60.2L256 64.2C252 64.6 248 65.3 244.1 66.1ZM259.9 63.7L259.5 59.7C263.6 59.3 267.7 59.1 271.8 59L271.9 63C267.9 63.1 263.9 63.3 259.9 63.7ZM287.9 63.7C283.9 63.3 279.9 63.1 275.9 63.1L276 59.1C280.1 59.2 284.2 59.4 288.3 59.8L287.9 63.7ZM303.8 66C299.9 65.2 295.9 64.5 292 64L292.5 60C296.6 60.5 300.7 61.2 304.7 62L303.8 66ZM319.2 70.2C315.4 69 311.5 67.9 307.6 67L308.5 63.1C312.5 64 316.5 65.2 320.4 66.4L319.2 70.2ZM334.2 75.9C330.6 74.3 326.8 72.7 323.1 71.4L324.4 67.6C328.3 69 332.1 70.5 335.9 72.2L334.2 75.9ZM348.4 83.3C345 81.3 341.4 79.4 337.8 77.6L339.5 74C343.2 75.8 346.8 77.7 350.4 79.8L348.4 83.3ZM361.8 92.2C358.6 89.8 355.3 87.5 351.9 85.4L354 82C357.5 84.2 360.9 86.5 364.2 89L361.8 92.2ZM374.1 102.4C371.2 99.7 368.1 97.1 365 94.6L367.5 91.5C370.7 94 373.9 96.7 376.9 99.5L374.1 102.4ZM377 105.1L379.8 102.2C382.7 105.1 385.6 108.1 388.3 111.1L385.3 113.7C382.6 110.9 379.9 107.9 377 105.1ZM387.9 116.9L391 114.3C393.6 117.5 396.1 120.8 398.5 124.1L395.2 126.4C392.9 123.2 390.4 120 387.9 116.9ZM397.4 129.7L400.7 127.5C403 130.9 405.1 134.5 407.1 138L403.6 139.9C401.7 136.5 399.6 133.1 397.4 129.7ZM405.5 143.5L409.1 141.7C411 145.3 412.7 149.1 414.3 152.9L410.6 154.4C409.1 150.7 407.4 147.1 405.5 143.5ZM412.1 158.1L415.8 156.7C417.3 160.5 418.6 164.5 419.8 168.4L416 169.5C414.9 165.7 413.6 161.8 412.1 158.1ZM417.1 173.3L421 172.3C422.1 176.3 423 180.3 423.7 184.3L419.8 185C419 181.1 418.1 177.2 417.1 173.3ZM421.7 200.9C421.4 196.9 421 192.9 420.4 189L424.4 188.4C425 192.4 425.5 196.6 425.7 200.7L421.7 200.9Z" fill="url(#paint2_radial)"/>
<path id="Vector_4" d="M126 211H122C122 209 122 206.9 122.1 204.9L126.1 205.1C126 207 126 209 126 211ZM127.6 189.1L123.6 188.5C123 192.5 122.5 196.7 122.3 200.8L126.3 201.1C126.6 197.1 127 193.1 127.6 189.1ZM425.6 200.7C425.3 196.6 424.9 192.5 424.3 188.4L420.3 189C420.9 192.9 421.3 197 421.6 200.9L425.6 200.7ZM130.9 173.5L127 172.5C125.9 176.5 125 180.5 124.3 184.5L128.2 185.2C129 181.3 129.9 177.3 130.9 173.5ZM423.6 184.3C422.9 180.3 422 176.2 420.9 172.3L417 173.3C418 177.2 418.9 181.1 419.6 185L423.6 184.3ZM135.8 158.2L132.1 156.8C130.6 160.6 129.3 164.6 128.1 168.5L131.9 169.6C133.1 165.8 134.4 162 135.8 158.2ZM419.8 168.3C418.6 164.4 417.3 160.5 415.8 156.6L412.1 158C413.5 161.7 414.8 165.5 416 169.4L419.8 168.3ZM142.4 143.6L138.8 141.8C136.9 145.4 135.2 149.2 133.6 153L137.3 154.5C138.9 150.8 140.6 147.2 142.4 143.6ZM414.3 152.9C412.7 149.1 411 145.4 409.1 141.7L405.5 143.5C407.3 147 409 150.7 410.6 154.4L414.3 152.9ZM150.5 129.8L147.2 127.6C144.9 131 142.8 134.6 140.8 138.2L144.3 140.1C146.2 136.6 148.3 133.1 150.5 129.8ZM407.2 138.1C405.2 134.5 403.1 131 400.8 127.6L397.5 129.8C399.7 133.1 401.8 136.6 403.7 140.1L407.2 138.1ZM160.1 116.9L157 114.3C154.4 117.5 151.9 120.8 149.5 124.1L152.8 126.4C155.1 123.2 157.5 120 160.1 116.9ZM398.4 124.1C396 120.8 393.5 117.5 390.9 114.3L387.8 116.9C390.3 120 392.8 123.2 395.1 126.4L398.4 124.1ZM171 105.2L168.2 102.3C165.3 105.2 162.4 108.2 159.7 111.3L162.7 113.9C165.3 110.9 168.1 108 171 105.2ZM388.3 111.2C385.6 108.1 382.7 105.1 379.8 102.3L377 105.2C379.9 108 382.6 110.9 385.3 113.9L388.3 111.2ZM183 94.6L180.5 91.5C177.3 94 174.1 96.7 171.1 99.5L173.8 102.4C176.8 99.7 179.9 97.1 183 94.6ZM376.8 99.4C373.8 96.6 370.6 93.9 367.4 91.4L364.9 94.5C368 97 371.1 99.6 374 102.3L376.8 99.4ZM196.1 85.4L194 82C190.5 84.2 187.1 86.5 183.8 89L186.2 92.2C189.4 89.8 192.7 87.5 196.1 85.4ZM364.1 88.9C360.8 86.5 357.4 84.1 353.9 81.9L351.8 85.3C355.2 87.4 358.5 89.7 361.7 92.1L364.1 88.9ZM210.1 77.7L208.4 74.1C204.7 75.9 201.1 77.8 197.5 79.9L199.5 83.3C203 81.3 206.5 79.4 210.1 77.7ZM350.4 79.9C346.9 77.8 343.2 75.9 339.5 74.1L337.8 77.7C341.4 79.4 345 81.3 348.4 83.4L350.4 79.9ZM224.9 71.5L223.6 67.7C219.7 69.1 215.9 70.6 212.2 72.3L213.8 75.9C217.4 74.3 221.1 72.8 224.9 71.5ZM335.8 72.3C332.1 70.6 328.2 69.1 324.3 67.7L323 71.5C326.8 72.8 330.5 74.3 334.1 76L335.8 72.3ZM240.2 66.9L239.3 63C235.3 63.9 231.3 65.1 227.4 66.3L228.6 70.1C232.4 69 236.3 67.9 240.2 66.9ZM320.5 66.4C316.6 65.1 312.6 64 308.6 63.1L307.7 67C311.6 67.9 315.5 69 319.3 70.2L320.5 66.4ZM256 64.1L255.5 60.1C251.4 60.6 247.3 61.3 243.3 62.1L244.1 66C248 65.3 252 64.6 256 64.1ZM304.6 62.1C300.6 61.3 296.5 60.6 292.4 60.1L291.9 64.1C295.9 64.6 299.8 65.2 303.7 66.1L304.6 62.1ZM271.9 63L271.8 59C267.7 59.1 263.6 59.3 259.5 59.7L259.9 63.7C263.9 63.3 267.9 63.1 271.9 63ZM288.3 59.7C284.2 59.3 280.1 59.1 276 59L275.9 63C279.9 63.1 283.9 63.3 287.9 63.6L288.3 59.7ZM425.9 204.9L421.9 205.1C422 207.1 422 209 422 211H426C426 209 426 206.9 425.9 204.9Z" fill="url(#paint3_radial)"/>
</g>
</g>
<path id="{{rotate:#0,rr:0.5,o:0.5;1.0}}" opacity="0.5" d="M84 211C84 106.8 169.8 21 274 21C378.2 21 464 106.8 464 211L84 211Z" fill="white"/>
<g id="Reflections" opacity="0.3">
<g id="Group">
<g id="Group_2">
<path id="Vector_5" d="M426 211V216H422V211H389V251H422V248H426V251H459V211H426ZM426 244H422V234H426V244ZM426 230H422V220H426V230Z" fill="url(#paint4_linear)"/>
</g>
<path id="Vector_6" d="M426 216H422V211H426V216ZM426 220H422V230H426V220ZM426 234H422V244H426V234ZM426 248H422V251H426V248Z" fill="url(#paint5_linear)"/>
</g>
<g id="Group_3">
<g id="Group_4">
<path id="Vector_7" d="M126 211V216H122V211H89V251H122V248H126V251H159V211H126ZM126 244H122V234H126V244ZM126 230H122V220H126V230Z" fill="url(#paint6_linear)"/>
</g>
<path id="Vector_8" d="M126 216H122V211H126V216ZM126 220H122V230H126V220ZM126 234H122V244H126V234ZM126 248H122V251H126V248Z" fill="url(#paint7_linear)"/>
</g>
</g>
<g id="Range Labels">
<g id="{{textAlign:start}}">
<text id="{{#0|c,r:1}}" fill="#5E7475" xml:space="preserve" style="white-space: pre" font-family="Avenir Next" font-size="21" font-weight="500" letter-spacing="0em"><tspan x="479" y="211.205">{{#0|c,r:1}}</tspan></text>
</g>
<g id="{{textAlign:end}}">
<text id="{{#0|c,r:0}}" fill="#5E7475" xml:space="preserve" style="white-space: pre" font-family="Avenir Next" font-size="21" font-weight="500" letter-spacing="0em"><tspan x="-31.4196" y="211.205">{{#0|c,r:0}}</tspan></text>
</g>
</g>
<g id="{{r:#0,rr:0.5,o:1.0;0.5}}">
<g id="{{r:#0,o:0.5;0.5}}">
<path id="Vector_9" d="M174.2 215.4C174.2 215.4 174.3 215.4 174.2 215.4C175.4 215.4 176.2 214.6 176.3 213.5C176.3 212.7 176.4 211.8 176.4 211C176.4 208.4 176.2 205.7 175.8 203.1C175.6 202 174.6 201.3 173.5 201.4C173.4 201.1 173.4 200.8 173.3 200.4C174.4 200.1 175 199 174.7 198C173.8 194.7 172.6 191.4 171.1 188.3C170.6 187.3 169.4 186.9 168.4 187.4C168.2 187.1 168.1 186.8 167.9 186.5C168.8 185.9 169.1 184.7 168.6 183.7C166.8 180.8 164.7 178 162.3 175.5C161.5 174.7 160.3 174.6 159.5 175.4C159.3 175.2 159 174.9 158.8 174.7C159.5 173.9 159.4 172.6 158.6 171.9C156 169.6 153.2 167.6 150.2 165.9C149.2 165.3 148 165.7 147.5 166.6C147.2 166.4 146.9 166.3 146.6 166.1C147.1 165.1 146.6 163.9 145.6 163.5C142.5 162.1 139.1 161 135.8 160.2C134.7 160 133.7 160.6 133.4 161.7C133.4 161.7 133.4 161.7 133.4 161.8C133.1 161.7 132.8 161.7 132.4 161.6C132.5 160.5 131.8 159.5 130.7 159.4C128.6 159.1 126.4 159 124.3 159C123 159 121.7 159 120.4 159.1C119.3 159.2 118.5 160.1 118.6 161.2C118.6 161.2 118.6 161.2 118.6 161.3C118.3 161.3 117.9 161.4 117.6 161.4C117.6 161.4 117.6 161.4 117.6 161.3C117.4 160.2 116.4 159.5 115.3 159.7C111.9 160.3 108.5 161.2 105.3 162.5C104.3 162.9 103.8 164.1 104.2 165.1C103.9 165.2 103.6 165.4 103.3 165.5C102.8 164.5 101.6 164.1 100.6 164.6C97.5 166.2 94.6 168.1 91.9 170.2C91 170.9 90.9 172.1 91.6 173C91.3 173.2 91.1 173.4 90.8 173.7C90 172.9 88.8 172.9 88 173.7C85.5 176.1 83.3 178.8 81.3 181.6C80.7 182.5 80.9 183.8 81.8 184.4C81.6 184.7 81.4 185 81.3 185.2C80.3 184.7 79.1 185 78.6 186C76.9 189 75.6 192.2 74.6 195.5C74.3 196.6 74.9 197.7 75.9 198C75.8 198.3 75.7 198.6 75.7 199C74.6 198.8 73.6 199.5 73.3 200.6C72.6 204 72.3 207.4 72.3 210.9V211.1C72.3 212.2 73.2 213.1 74.3 213.1C74.3 213.4 74.3 213.8 74.4 214.1C74.4 214.1 74.4 214.1 74.3 214.1C73.2 214.2 72.4 215.2 72.5 216.3C72.9 219.7 73.6 223.2 74.6 226.4C74.9 227.3 75.7 227.8 76.5 227.8C76.7 227.8 76.9 227.8 77.1 227.7C77.2 228 77.3 228.3 77.4 228.6C76.4 229 75.9 230.2 76.3 231.2C77.7 234.4 79.3 237.4 81.3 240.3C81.7 240.9 82.3 241.2 82.9 241.2C83.3 241.2 83.7 241.1 84 240.8C84.2 241.1 84.4 241.3 84.6 241.6C83.8 242.3 83.7 243.6 84.4 244.4C86.6 247 89.1 249.5 91.8 251.6C92.2 251.9 92.6 252 93 252C93.6 252 94.2 251.7 94.6 251.2C94.9 251.4 95.1 251.6 95.4 251.8C94.8 252.7 95.1 254 96 254.6C98.9 256.5 102 258 105.2 259.3C105.4 259.4 105.7 259.4 105.9 259.4C106.7 259.4 107.5 258.9 107.8 258.1C107.8 258.1 107.8 258.1 107.8 258C108.1 258.1 108.4 258.2 108.7 258.3C108.4 259.4 109 260.5 110.1 260.8C113.4 261.7 116.8 262.3 120.3 262.6H120.4C121.4 262.6 122.3 261.8 122.4 260.7C122.4 260.7 122.4 260.7 122.4 260.6C122.7 260.6 123.1 260.6 123.4 260.6C123.4 260.6 123.4 260.6 123.4 260.7C123.4 261.8 124.3 262.6 125.4 262.6C125.4 262.6 125.4 262.6 125.5 262.6C129 262.5 132.4 262.1 135.8 261.3C136.9 261.1 137.5 260 137.3 258.9C137.3 258.9 137.3 258.9 137.3 258.8C137.6 258.7 137.9 258.6 138.3 258.5C138.3 258.5 138.3 258.5 138.3 258.6C138.6 259.4 139.4 260 140.2 260C140.4 260 140.6 260 140.8 259.9C144.1 258.8 147.2 257.3 150.2 255.6C151.2 255 151.5 253.8 150.9 252.9C151.2 252.7 151.5 252.5 151.7 252.4C152.1 252.9 152.7 253.2 153.3 253.2C153.7 253.2 154.1 253.1 154.5 252.8C157.3 250.8 159.9 248.5 162.2 245.9C162.9 245.1 162.9 243.8 162.1 243.1C162.3 242.8 162.5 242.6 162.7 242.3C163.1 242.6 163.5 242.7 163.9 242.7C164.5 242.7 165.1 242.4 165.5 241.9C167.6 239.1 169.4 236.2 170.9 233.1C171.4 232.1 171 230.9 170 230.4C170.1 230.1 170.3 229.8 170.4 229.5C170.6 229.6 170.9 229.6 171.1 229.6C171.9 229.6 172.7 229.1 173 228.3C174.2 225.1 175 221.7 175.5 218.3C175.7 217.2 174.9 216.2 173.8 216C174.1 216 174.1 215.7 174.2 215.4Z" fill="white" stroke="white" stroke-width="6" stroke-miterlimit="10"/>
<path id="Vector_10" d="M174.2 215.4C174.2 215.4 174.3 215.4 174.2 215.4C175.4 215.4 176.2 214.6 176.3 213.5C176.3 212.7 176.4 211.8 176.4 211C176.4 208.4 176.2 205.7 175.8 203.1C175.6 202 174.6 201.3 173.5 201.4C173.4 201.1 173.4 200.8 173.3 200.4C174.4 200.1 175 199 174.7 198C173.8 194.7 172.6 191.4 171.1 188.3C170.6 187.3 169.4 186.9 168.4 187.4C168.2 187.1 168.1 186.8 167.9 186.5C168.8 185.9 169.1 184.7 168.6 183.7C166.8 180.8 164.7 178 162.3 175.5C161.5 174.7 160.3 174.6 159.5 175.4C159.3 175.2 159 174.9 158.8 174.7C159.5 173.9 159.4 172.6 158.6 171.9C156 169.6 153.2 167.6 150.2 165.9C149.2 165.3 148 165.7 147.5 166.6C147.2 166.4 146.9 166.3 146.6 166.1C147.1 165.1 146.6 163.9 145.6 163.5C142.5 162.1 139.1 161 135.8 160.2C134.7 160 133.7 160.6 133.4 161.7C133.4 161.7 133.4 161.7 133.4 161.8C133.1 161.7 132.8 161.7 132.4 161.6C132.5 160.5 131.8 159.5 130.7 159.4C128.6 159.1 126.4 159 124.3 159C123 159 121.7 159 120.4 159.1C119.3 159.2 118.5 160.1 118.6 161.2C118.6 161.2 118.6 161.2 118.6 161.3C118.3 161.3 117.9 161.4 117.6 161.4C117.6 161.4 117.6 161.4 117.6 161.3C117.4 160.2 116.4 159.5 115.3 159.7C111.9 160.3 108.5 161.2 105.3 162.5C104.3 162.9 103.8 164.1 104.2 165.1C103.9 165.2 103.6 165.4 103.3 165.5C102.8 164.5 101.6 164.1 100.6 164.6C97.5 166.2 94.6 168.1 91.9 170.2C91 170.9 90.9 172.1 91.6 173C91.3 173.2 91.1 173.4 90.8 173.7C90 172.9 88.8 172.9 88 173.7C85.5 176.1 83.3 178.8 81.3 181.6C80.7 182.5 80.9 183.8 81.8 184.4C81.6 184.7 81.4 185 81.3 185.2C80.3 184.7 79.1 185 78.6 186C76.9 189 75.6 192.2 74.6 195.5C74.3 196.6 74.9 197.7 75.9 198C75.8 198.3 75.7 198.6 75.7 199C74.6 198.8 73.6 199.5 73.3 200.6C72.6 204 72.3 207.4 72.3 210.9V211.1C72.3 212.2 73.2 213.1 74.3 213.1C74.3 213.4 74.3 213.8 74.4 214.1C74.4 214.1 74.4 214.1 74.3 214.1C73.2 214.2 72.4 215.2 72.5 216.3C72.9 219.7 73.6 223.2 74.6 226.4C74.9 227.3 75.7 227.8 76.5 227.8C76.7 227.8 76.9 227.8 77.1 227.7C77.2 228 77.3 228.3 77.4 228.6C76.4 229 75.9 230.2 76.3 231.2C77.7 234.4 79.3 237.4 81.3 240.3C81.7 240.9 82.3 241.2 82.9 241.2C83.3 241.2 83.7 241.1 84 240.8C84.2 241.1 84.4 241.3 84.6 241.6C83.8 242.3 83.7 243.6 84.4 244.4C86.6 247 89.1 249.5 91.8 251.6C92.2 251.9 92.6 252 93 252C93.6 252 94.2 251.7 94.6 251.2C94.9 251.4 95.1 251.6 95.4 251.8C94.8 252.7 95.1 254 96 254.6C98.9 256.5 102 258 105.2 259.3C105.4 259.4 105.7 259.4 105.9 259.4C106.7 259.4 107.5 258.9 107.8 258.1C107.8 258.1 107.8 258.1 107.8 258C108.1 258.1 108.4 258.2 108.7 258.3C108.4 259.4 109 260.5 110.1 260.8C113.4 261.7 116.8 262.3 120.3 262.6H120.4C121.4 262.6 122.3 261.8 122.4 260.7C122.4 260.7 122.4 260.7 122.4 260.6C122.7 260.6 123.1 260.6 123.4 260.6C123.4 260.6 123.4 260.6 123.4 260.7C123.4 261.8 124.3 262.6 125.4 262.6C125.4 262.6 125.4 262.6 125.5 262.6C129 262.5 132.4 262.1 135.8 261.3C136.9 261.1 137.5 260 137.3 258.9C137.3 258.9 137.3 258.9 137.3 258.8C137.6 258.7 137.9 258.6 138.3 258.5C138.3 258.5 138.3 258.5 138.3 258.6C138.6 259.4 139.4 260 140.2 260C140.4 260 140.6 260 140.8 259.9C144.1 258.8 147.2 257.3 150.2 255.6C151.2 255 151.5 253.8 150.9 252.9C151.2 252.7 151.5 252.5 151.7 252.4C152.1 252.9 152.7 253.2 153.3 253.2C153.7 253.2 154.1 253.1 154.5 252.8C157.3 250.8 159.9 248.5 162.2 245.9C162.9 245.1 162.9 243.8 162.1 243.1C162.3 242.8 162.5 242.6 162.7 242.3C163.1 242.6 163.5 242.7 163.9 242.7C164.5 242.7 165.1 242.4 165.5 241.9C167.6 239.1 169.4 236.2 170.9 233.1C171.4 232.1 171 230.9 170 230.4C170.1 230.1 170.3 229.8 170.4 229.5C170.6 229.6 170.9 229.6 171.1 229.6C171.9 229.6 172.7 229.1 173 228.3C174.2 225.1 175 221.7 175.5 218.3C175.7 217.2 174.9 216.2 173.8 216C174.1 216 174.1 215.7 174.2 215.4Z" fill="#283133"/>
<path id="Vector_11" d="M124.3 259C150.81 259 172.3 237.51 172.3 211C172.3 184.49 150.81 163 124.3 163C97.7903 163 76.3 184.49 76.3 211C76.3 237.51 97.7903 259 124.3 259Z" stroke="url(#paint8_linear)" stroke-miterlimit="10"/>
<path id="Vector_12" d="M124.3 259C150.81 259 172.3 237.51 172.3 211C172.3 184.49 150.81 163 124.3 163C97.7903 163 76.3 184.49 76.3 211C76.3 237.51 97.7903 259 124.3 259Z" stroke="url(#paint9_linear)" stroke-miterlimit="10"/>
<g id="rim_1_">
<path id="rim_2_" d="M145.6 189.8C133.9 178.1 114.9 178.1 103.2 189.8C91.5 201.5 91.5 220.5 103.2 232.2C114.9 243.9 133.9 243.9 145.6 232.2C157.3 220.5 157.3 201.5 145.6 189.8ZM143.3 198.5L133.6 201.7C132 202.2 130.4 201 130.4 199.4V189.2C130.4 187.5 132.1 186.3 133.7 186.9C137 188.2 140.1 190.1 142.7 192.8C143.3 193.4 143.9 194.1 144.5 194.8C145.5 195.9 144.9 197.9 143.3 198.5ZM106 192.7C108.6 190.1 111.7 188.1 115 186.8C116.6 186.2 118.3 187.4 118.3 189.1V199.3C118.3 201 116.7 202.1 115.1 201.6L105.4 198.4C103.8 197.9 103.2 195.9 104.2 194.6C104.8 194 105.4 193.3 106 192.7ZM101.6 210L111.3 213.1C112.9 213.6 113.5 215.5 112.5 216.8L106.5 225C105.5 226.4 103.4 226.3 102.5 224.9C100 221 98.6 216.7 98.4 212.2C98.4 210.7 100 209.5 101.6 210ZM116.4 232.3L122.4 224.1C123.4 222.8 125.4 222.8 126.3 224.1L132.3 232.3C133.3 233.7 132.6 235.6 131 236.1C126.7 237.2 122.1 237.2 117.7 236.1C116.1 235.7 115.4 233.7 116.4 232.3ZM142.1 225.2L136.1 217C135.1 215.7 135.7 213.8 137.3 213.3L147 210.2C148.6 209.7 150.3 210.9 150.2 212.6C150 217 148.6 221.4 146.1 225.3C145.2 226.5 143.1 226.5 142.1 225.2Z" fill="url(#paint10_radial)"/>
<g id="inner_cap_2_">
<path id="Vector_13" d="M124.3 217C127.614 217 130.3 214.314 130.3 211C130.3 207.686 127.614 205 124.3 205C120.986 205 118.3 207.686 118.3 211C118.3 214.314 120.986 217 124.3 217Z" stroke="#AFBBBC" stroke-miterlimit="10"/>
</g>
<g id="bolts_1_">
<g id="Group_5">
<path id="Vector_14" d="M124.3 202.5C125.405 202.5 126.3 201.605 126.3 200.5C126.3 199.395 125.405 198.5 124.3 198.5C123.195 198.5 122.3 199.395 122.3 200.5C122.3 201.605 123.195 202.5 124.3 202.5Z" fill="#4D5C5E"/>
</g>
<g id="Group_6">
<path id="Vector_15" d="M118.2 221.5C119.305 221.5 120.2 220.605 120.2 219.5C120.2 218.395 119.305 217.5 118.2 217.5C117.095 217.5 116.2 218.395 116.2 219.5C116.2 220.605 117.095 221.5 118.2 221.5Z" fill="#4D5C5E"/>
</g>
<g id="Group_7">
<path id="Vector_16" d="M114.4 209.7C115.505 209.7 116.4 208.805 116.4 207.7C116.4 206.595 115.505 205.7 114.4 205.7C113.295 205.7 112.4 206.595 112.4 207.7C112.4 208.805 113.295 209.7 114.4 209.7Z" fill="#4D5C5E"/>
</g>
<g id="Group_8">
<path id="Vector_17" d="M134.3 209.7C135.405 209.7 136.3 208.805 136.3 207.7C136.3 206.595 135.405 205.7 134.3 205.7C133.195 205.7 132.3 206.595 132.3 207.7C132.3 208.805 133.195 209.7 134.3 209.7Z" fill="#4D5C5E"/>
</g>
<g id="Group_9">
<path id="Vector_18" d="M130.3 221.5C131.405 221.5 132.3 220.605 132.3 219.5C132.3 218.395 131.405 217.5 130.3 217.5C129.195 217.5 128.3 218.395 128.3 219.5C128.3 220.605 129.195 221.5 130.3 221.5Z" fill="#4D5C5E"/>
</g>
</g>
<g id="rim_edge_highlight_2_">
<path id="Vector_19" d="M124.3 239C139.764 239 152.3 226.464 152.3 211C152.3 195.536 139.764 183 124.3 183C108.836 183 96.3 195.536 96.3 211C96.3 226.464 108.836 239 124.3 239Z" stroke="url(#paint11_linear)" stroke-miterlimit="10"/>
</g>
<g id="rim_edge_shadow_2_">
<path id="Vector_20" d="M124.3 239C139.764 239 152.3 226.464 152.3 211C152.3 195.536 139.764 183 124.3 183C108.836 183 96.3 195.536 96.3 211C96.3 226.464 108.836 239 124.3 239Z" stroke="url(#paint12_linear)" stroke-miterlimit="10"/>
</g>
</g>
</g>
<line id="Line 1" x1="274.5" y1="191" x2="274.5" y2="227" stroke="black" stroke-opacity="0.01"/>
</g>
<g id="{{textAlign:middle}}">
<text id="{{#0|c}}" fill="#D94A1A" xml:space="preserve" style="white-space: pre" font-family="Avenir Next" font-size="54" font-weight="bold" letter-spacing="0em"><tspan x="183.271" y="211.55">{{#0|c}}</tspan></text>
</g>
</g>
<defs>
<radialGradient id="paint0_radial" cx="0" cy="0" r="1" gradientUnits="userSpaceOnUse" gradientTransform="translate(277.775 60.9478) scale(186.021)">
<stop offset="0.25" stop-color="#6B8485"/>
<stop offset="1" stop-color="#5E7475"/>
</radialGradient>
<radialGradient id="paint1_radial" cx="0" cy="0" r="1" gradientUnits="userSpaceOnUse" gradientTransform="translate(277.301 61.0622) scale(183.936)">
<stop offset="0.2531" stop-color="#FFE69E"/>
<stop offset="1" stop-color="#FFDF85"/>
</radialGradient>
<radialGradient id="paint2_radial" cx="0" cy="0" r="1" gradientUnits="userSpaceOnUse" gradientTransform="translate(277.775 60.9478) scale(186.021)">
<stop offset="0.25" stop-color="#6B8485"/>
<stop offset="1" stop-color="#5E7475"/>
</radialGradient>
<radialGradient id="paint3_radial" cx="0" cy="0" r="1" gradientUnits="userSpaceOnUse" gradientTransform="translate(277.301 61.0622) scale(183.936)">
<stop offset="0.2531" stop-color="#FEE126"/>
<stop offset="1" stop-color="#FFDF85"/>
</radialGradient>
<linearGradient id="paint4_linear" x1="424" y1="211" x2="424" y2="251" gradientUnits="userSpaceOnUse">
<stop stop-color="#5E7475"/>
<stop offset="1" stop-color="#5E7475" stop-opacity="0"/>
</linearGradient>
<linearGradient id="paint5_linear" x1="424" y1="211" x2="424" y2="251" gradientUnits="userSpaceOnUse">
<stop stop-color="#FFDF85"/>
<stop offset="1" stop-color="#FFDF85" stop-opacity="0"/>
</linearGradient>
<linearGradient id="paint6_linear" x1="124" y1="211" x2="124" y2="251" gradientUnits="userSpaceOnUse">
<stop stop-color="#5E7475"/>
<stop offset="1" stop-color="#5E7475" stop-opacity="0"/>
</linearGradient>
<linearGradient id="paint7_linear" x1="124" y1="211" x2="124" y2="251" gradientUnits="userSpaceOnUse">
<stop stop-color="#FFDF85"/>
<stop offset="1" stop-color="#FFDF85" stop-opacity="0"/>
</linearGradient>
<linearGradient id="paint8_linear" x1="124.347" y1="259.51" x2="124.347" y2="162.51" gradientUnits="userSpaceOnUse">
<stop offset="0.15" stop-color="#181D1F"/>
<stop offset="0.45" stop-color="#181D1F" stop-opacity="0"/>
</linearGradient>
<linearGradient id="paint9_linear" x1="124.347" y1="162.509" x2="124.347" y2="259.51" gradientUnits="userSpaceOnUse">
<stop offset="0.2" stop-color="#485659"/>
<stop offset="0.55" stop-color="#485659" stop-opacity="0"/>
</linearGradient>
<radialGradient id="paint10_radial" cx="0" cy="0" r="1" gradientUnits="userSpaceOnUse" gradientTransform="translate(125.379 200.781) scale(30)">
<stop offset="0.2539" stop-color="#E3E7E8"/>
<stop offset="0.7683" stop-color="#D3DBDD"/>
</radialGradient>
<linearGradient id="paint11_linear" x1="124.347" y1="239.51" x2="124.347" y2="182.51" gradientUnits="userSpaceOnUse">
<stop offset="0.1469" stop-color="#F0F4F5"/>
<stop offset="0.4546" stop-color="#F0F4F5" stop-opacity="0"/>
</linearGradient>
<linearGradient id="paint12_linear" x1="124.347" y1="182.51" x2="124.347" y2="239.509" gradientUnits="userSpaceOnUse">
<stop offset="0.2" stop-color="#AFBBBC"/>
<stop offset="0.6" stop-color="#AFBBBC" stop-opacity="0"/>
</linearGradient>
<clipPath id="clip0">
<rect width="579" height="290" fill="white"/>
</clipPath>
</defs>
</svg>
