<svg width="300" height="150" viewBox="0 0 300 150" fill="none" xmlns="http://www.w3.org/2000/svg">
<rect width="300" height="150" fill="#E5E5E5"/>
<g id="transform-scale">
<rect width="300" height="150" fill="#EEEEEE"/>
<rect id="{{sx:#0,o:0.5;0.5}}" x="50" y="50" width="50" height="50" fill="#0478CE"/>
<rect id="{{s:#0,o:0.5;0.5}}" x="125" y="50" width="50" height="50" fill="#0478CE"/>
<rect id="{{sy:#0,o:0.5;0.5}}" x="200" y="50" width="50" height="50" fill="#0478CE"/>
<path id="Arrow 1" d="M85.3536 121.354C85.5488 121.158 85.5488 120.842 85.3536 120.646L82.1716 117.464C81.9763 117.269 81.6597 117.269 81.4645 117.464C81.2692 117.66 81.2692 117.976 81.4645 118.172L84.2929 121L81.4645 123.828C81.2692 124.024 81.2692 124.34 81.4645 124.536C81.6597 124.731 81.9763 124.731 82.1716 124.536L85.3536 121.354ZM75 121.5H85V120.5H75V121.5Z" fill="black"/>
<path id="Arrow 2" d="M64.6464 120.646C64.4512 120.842 64.4512 121.158 64.6464 121.354L67.8284 124.536C68.0237 124.731 68.3403 124.731 68.5355 124.536C68.7308 124.34 68.7308 124.024 68.5355 123.828L65.7071 121L68.5355 118.172C68.7308 117.976 68.7308 117.66 68.5355 117.464C68.3403 117.269 68.0237 117.269 67.8284 117.464L64.6464 120.646ZM75 120.5H65V121.5H75V120.5Z" fill="black"/>
<path id="Arrow 3" d="M160.354 121.354C160.549 121.158 160.549 120.842 160.354 120.646L157.172 117.464C156.976 117.269 156.66 117.269 156.464 117.464C156.269 117.66 156.269 117.976 156.464 118.172L159.293 121L156.464 123.828C156.269 124.024 156.269 124.34 156.464 124.536C156.66 124.731 156.976 124.731 157.172 124.536L160.354 121.354ZM150 121.5H160V120.5H150V121.5Z" fill="black"/>
<path id="Arrow 4" d="M139.646 120.646C139.451 120.842 139.451 121.158 139.646 121.354L142.828 124.536C143.024 124.731 143.34 124.731 143.536 124.536C143.731 124.34 143.731 124.024 143.536 123.828L140.707 121L143.536 118.172C143.731 117.976 143.731 117.66 143.536 117.464C143.34 117.269 143.024 117.269 142.828 117.464L139.646 120.646ZM150 120.5H140V121.5H150V120.5Z" fill="black"/>
<path id="Arrow 5" d="M150.354 110.646C150.158 110.451 149.842 110.451 149.646 110.646L146.464 113.828C146.269 114.024 146.269 114.34 146.464 114.536C146.66 114.731 146.976 114.731 147.172 114.536L150 111.707L152.828 114.536C153.024 114.731 153.34 114.731 153.536 114.536C153.731 114.34 153.731 114.024 153.536 113.828L150.354 110.646ZM150.5 121L150.5 111L149.5 111L149.5 121L150.5 121Z" fill="black"/>
<path id="Arrow 6" d="M149.646 131.354C149.842 131.549 150.158 131.549 150.354 131.354L153.536 128.172C153.731 127.976 153.731 127.66 153.536 127.464C153.34 127.269 153.024 127.269 152.828 127.464L150 130.293L147.172 127.464C146.976 127.269 146.66 127.269 146.464 127.464C146.269 127.66 146.269 127.976 146.464 128.172L149.646 131.354ZM149.5 121L149.5 131L150.5 131L150.5 121L149.5 121Z" fill="black"/>
<path id="Arrow 7" d="M225.354 110.646C225.158 110.451 224.842 110.451 224.646 110.646L221.464 113.828C221.269 114.024 221.269 114.34 221.464 114.536C221.66 114.731 221.976 114.731 222.172 114.536L225 111.707L227.828 114.536C228.024 114.731 228.34 114.731 228.536 114.536C228.731 114.34 228.731 114.024 228.536 113.828L225.354 110.646ZM225.5 121L225.5 111L224.5 111L224.5 121L225.5 121Z" fill="black"/>
<path id="Arrow 8" d="M224.646 131.354C224.842 131.549 225.158 131.549 225.354 131.354L228.536 128.172C228.731 127.976 228.731 127.66 228.536 127.464C228.34 127.269 228.024 127.269 227.828 127.464L225 130.293L222.172 127.464C221.976 127.269 221.66 127.269 221.464 127.464C221.269 127.66 221.269 127.976 221.464 128.172L224.646 131.354ZM224.5 121L224.5 131L225.5 131L225.5 121L224.5 121Z" fill="black"/>
</g>
</svg>
