<svg width="300" height="150" viewBox="0 0 300 150" fill="none" xmlns="http://www.w3.org/2000/svg">
<rect width="300" height="150" fill="#E5E5E5"/>
<g id="transform-position">
<rect width="300" height="150" fill="#EEEEEE"/>
<rect id="{{box1}}" x="50" y="50" width="50" height="50" fill="black"/>
<rect id="{{box2}}" x="125" y="50" width="50" height="50" fill="black"/>
<rect id="{{box3}}" x="200" y="50" width="50" height="50" fill="black"/>
<path id="Arrow 1" d="M85.3536 121.354C85.5488 121.158 85.5488 120.842 85.3536 120.646L82.1716 117.464C81.9763 117.269 81.6597 117.269 81.4645 117.464C81.2692 117.66 81.2692 117.976 81.4645 118.172L84.2929 121L81.4645 123.828C81.2692 124.024 81.2692 124.34 81.4645 124.536C81.6597 124.731 81.9763 124.731 82.1716 124.536L85.3536 121.354ZM65 121.5L85 121.5L85 120.5L65 120.5L65 121.5Z" fill="black"/>
<path id="Arrow 3" d="M160.354 111.354C160.549 111.158 160.549 110.842 160.354 110.646L157.172 107.464C156.976 107.269 156.66 107.269 156.464 107.464C156.269 107.66 156.269 107.976 156.464 108.172L159.293 111L156.464 113.828C156.269 114.024 156.269 114.34 156.464 114.536C156.66 114.731 156.976 114.731 157.172 114.536L160.354 111.354ZM140 111.5L160 111.5L160 110.5L140 110.5L140 111.5Z" fill="black"/>
<path id="Arrow 5" d="M139.646 131.354C139.842 131.549 140.158 131.549 140.354 131.354L143.536 128.172C143.731 127.976 143.731 127.66 143.536 127.464C143.34 127.269 143.024 127.269 142.828 127.464L140 130.293L137.172 127.464C136.976 127.269 136.66 127.269 136.464 127.464C136.269 127.66 136.269 127.976 136.464 128.172L139.646 131.354ZM139.5 111L139.5 131L140.5 131L140.5 111L139.5 111Z" fill="black"/>
<path id="Arrow 7" d="M224.646 131.354C224.842 131.549 225.158 131.549 225.354 131.354L228.536 128.172C228.731 127.976 228.731 127.66 228.536 127.464C228.34 127.269 228.024 127.269 227.828 127.464L225 130.293L222.172 127.464C221.976 127.269 221.66 127.269 221.464 127.464C221.269 127.66 221.269 127.976 221.464 128.172L224.646 131.354ZM224.5 111V131H225.5V111H224.5Z" fill="black"/>
<rect id="{{px:#0,g:box1,o:0.5;0.5}}" x="44" y="69" width="12" height="12" fill="#0478CE" stroke="#EEEEEE" stroke-width="2"/>
<rect id="{{p:#0,g:box1,o:0.5;0.5}}" x="119" y="44" width="12" height="12" fill="#0478CE" stroke="#EEEEEE" stroke-width="2"/>
<rect id="{{py:#0,g:box3,o:0.5;0.5}}" x="219" y="44" width="12" height="12" fill="#0478CE" stroke="#EEEEEE" stroke-width="2"/>
</g>
</svg>
