<svg width="300" height="150" viewBox="0 0 300 150" fill="none" xmlns="http://www.w3.org/2000/svg">
<rect width="300" height="150" fill="#E5E5E5"/>
<g id="transform-position-path">
<rect width="300" height="150" fill="#EEEEEE"/>
<line id="{{line}}" x1="49.2929" y1="99.2929" x2="99.2929" y2="49.2929" stroke="black" stroke-width="2"/>
<path id="{{polyline}}" d="M125 100H175L125 76L175 50H125" stroke="black" stroke-width="2" stroke-linecap="round" stroke-linejoin="round"/>
<path id="{{path}}" d="M225 50C211 57.5 200 57 200 74.5C200 92 224.5 100 233.5 100C242.5 100 250 90 250 79C250 68 234.5 60 225 64.5C215.5 69 217.5 83.5 224 85C230.5 86.5 238 83.5 237.5 79" stroke="black" stroke-width="2" stroke-linecap="round" stroke-linejoin="round"/>
<rect id="{{p:#0,g:line,o:0.5;0.5}}" x="44" y="94" width="12" height="12" fill="#0478CE" stroke="#EEEEEE" stroke-width="2"/>
<rect id="{{p:#0,g:polyline,o:0.5;0.5}}" x="119" y="94" width="12" height="12" fill="#0478CE" stroke="#EEEEEE" stroke-width="2"/>
<rect id="{{p:#0,g:path,o:0.5;0.5}}" x="219" y="44" width="12" height="12" fill="#0478CE" stroke="#EEEEEE" stroke-width="2"/>
</g>
</svg>
